<svg width="419" height="418" viewBox="0 0 419 418" fill="none" xmlns="http://www.w3.org/2000/svg">
<path d="M282.354 244.771C269.63 277.412 237.833 300.688 200.516 300.688C152.036 300.688 112.677 261.573 112.677 213.094C112.677 164.615 152.036 125.255 200.516 125.255C203.755 125.255 206.755 125.375 209.875 125.74C178.438 133.776 155.156 162.333 155.156 196.292C155.156 236.495 187.677 269.13 227.995 269.13C249.594 269.13 269.031 259.771 282.354 244.771ZM260.271 201.094L267.474 191.615L279.354 192.094L272.51 182.375L276.714 171.214L265.313 174.693L255.953 167.255L255.714 179.135L245.755 185.734L257.031 189.573L260.271 201.094ZM337.911 264.693L332.87 270.214L325.552 269.13L329.151 275.609L326.151 282.208L333.349 280.771L338.63 285.932L339.469 278.609L345.948 275.13L339.229 272.01L337.911 264.693ZM316.432 230.734L313.911 227.854L313.193 231.573L309.708 233.13L313.073 234.932L313.312 238.651L316.068 236.13L319.792 236.974L318.229 233.495L320.151 230.255L316.432 230.734ZM282.714 286.292L280.552 280.172L276.953 285.573L270.474 285.693L274.432 290.729L272.51 296.969L278.63 294.693L284.031 298.411L283.792 291.932L288.953 287.969L282.714 286.292ZM327.948 142.896L333.349 141.219L337.911 144.698V138.938L342.708 135.698L337.307 133.896L335.75 128.375L332.391 132.938L326.63 132.698L329.99 137.375L327.948 142.896ZM342.828 189.693L336.469 182.495L334.672 191.974L325.792 195.813L334.187 200.495L335.151 210.094L342.229 203.495L351.589 205.536L347.51 196.776L352.427 188.495L342.828 189.693ZM97.7969 143.974L98.6406 149.135L101.161 144.698L106.198 144.818L102.479 141.698L104.281 138.339L100.318 139.776L97.0781 137.016L97.5573 140.734L93 142.417L97.7969 143.974ZM107.88 255.932L102.719 258.573L97.9167 255.214V255.333L99.4792 260.854L95.2813 264.932L100.797 264.333L102.12 268.411L104.161 263.974L109.078 263.49L105.599 260.974L107.88 255.932ZM262.792 107.135L263.63 112.177V112.057L266.151 107.74L271.193 107.859L267.474 104.74L269.271 101.38L265.313 102.818L262.073 100.057L262.552 103.776L257.995 105.458L262.792 107.135ZM158.635 102.219L164.755 99.9375L170.036 103.656L169.797 97.1771L174.958 93.2188L168.719 91.5365L166.557 85.4167L162.958 90.8177L156.479 90.9375L160.557 95.9792L158.635 102.219Z" fill="#D47ED5"/>
<path d="M254.536 322.484L259.099 321.88L256.818 325.844L258.74 330.042L254.297 329.083L250.938 332.203L250.458 327.521L246.5 325.245L250.698 323.443L251.536 319L254.536 322.484Z" fill="#D47ED5"/>
<path d="M154.677 325.047L147.474 334.526L144.234 323.005L132.958 319.167L142.917 312.568L143.156 300.688L152.516 308.125L163.917 304.646L159.714 315.807L166.557 325.526L154.677 325.047Z" fill="#D47ED5"/>
<path d="M78.2188 212.854L71.0156 222.333L67.776 210.813L56.5 206.974L66.4583 200.375L66.6979 188.495L76.0573 195.932L87.4583 192.453L83.2552 203.615L90.099 213.333L78.2188 212.854Z" fill="#D47ED5"/>
<path d="M201.536 348.984L206.099 348.38L203.818 352.344L205.74 356.542L201.297 355.583L197.938 358.703L197.458 354.021L193.5 351.745L197.698 349.943L198.536 345.5L201.536 348.984Z" fill="#D47ED5"/>
<path d="M226.536 322.651L231.099 322.047L228.818 326.01L230.74 330.208L226.297 329.25L222.938 332.37L222.458 327.688L218.5 325.411L222.698 323.609L223.536 319.167L226.536 322.651Z" fill="#D47ED5"/>
<path d="M86.2552 291.453L90.8177 290.849L88.5364 294.813L90.4583 299.01L86.0156 298.052L82.6562 301.172L82.1771 296.49L78.2188 294.214L82.4167 292.412L83.2552 287.969L86.2552 291.453Z" fill="#D47ED5"/>
<path d="M226.318 86.6198L219.234 93.2188L218.276 83.6198L209.875 78.9427L218.755 75.099L220.557 65.6198L226.917 72.8229L236.516 71.6198L231.594 79.9011L235.677 88.6615L226.318 86.6198Z" fill="#D47ED5"/>
<path d="M307.667 90.9375L309.828 97.0573L316.068 98.7396L310.906 102.698L311.151 109.177L305.75 105.458L299.63 107.74L301.667 101.5L297.589 96.4584L304.068 96.3386L307.667 90.9375Z" fill="#D47ED5"/>
<path d="M46.1406 292.708V340.219C76.1875 377.573 118.823 404.37 167.609 414.161L46.1406 292.708Z" fill="#4C3B86"/>
<path d="M413.474 252.182L292.385 372.224H339.807C376.797 342.469 403.432 300.37 413.474 252.182Z" fill="#4C3B86"/>
<path d="M125.568 46.5521H78.1459C41.1719 76.3073 14.5365 118.365 4.49481 166.521L125.568 46.5521Z" fill="#4C3B86"/>
<mask id="mask0_120_192" style="mask-type:luminance" maskUnits="userSpaceOnUse" x="151" y="382" width="174" height="36">
<path d="M151.667 382.333H325V417.495H151.667V382.333Z" fill="white"/>
</mask>
<g mask="url(#mask0_120_192)">
<path d="M152.766 383.453L186.385 417.073C193.807 417.865 201.349 418.292 208.979 418.292C251.698 418.292 291.401 405.458 324.49 383.469H152.766V383.453Z" fill="#4C3B86"/>
</g>
<mask id="mask1_120_192" style="mask-type:luminance" maskUnits="userSpaceOnUse" x="93" y="0" width="174" height="36">
<path d="M93 0.494781H266.333V35.6667H93V0.494781Z" fill="white"/>
</mask>
<g mask="url(#mask1_120_192)">
<path d="M265.354 35.3385L231.823 1.74478C224.323 0.921864 216.693 0.494781 208.979 0.494781C166.26 0.494781 126.552 13.3281 93.4636 35.3385H265.354Z" fill="#4C3B86"/>
</g>
<mask id="mask2_120_192" style="mask-type:luminance" maskUnits="userSpaceOnUse" x="382" y="93" width="37" height="175">
<path d="M382.333 93H418.089V267.667H382.333V93Z" fill="white"/>
</mask>
<g mask="url(#mask2_120_192)">
<path d="M383.042 266.542L416.5 233.38C417.396 225.5 417.88 217.5 417.88 209.385C417.88 166.667 405.047 126.964 383.042 93.875V266.542Z" fill="#4C3B86"/>
</g>
<mask id="mask3_120_192" style="mask-type:luminance" maskUnits="userSpaceOnUse" x="0" y="151" width="36" height="174">
<path d="M0.088562 151.667H35.6667V325H0.088562V151.667Z" fill="white"/>
</mask>
<g mask="url(#mask3_120_192)">
<path d="M34.9271 152.188L1.46877 185.323C0.557313 193.219 0.088562 201.245 0.088562 209.385C0.088562 252.109 12.9219 291.813 34.9271 324.901V152.188Z" fill="#4C3B86"/>
</g>
<path d="M371.813 126.052V78.5573C341.807 41.2604 299.281 14.4896 250.594 4.65625L371.813 126.052Z" fill="#4C3B86"/>
</svg>
