<svg width="308" height="295" viewBox="0 0 308 295" fill="none" xmlns="http://www.w3.org/2000/svg">
<mask id="mask0_195_310" style="mask-type:luminance" maskUnits="userSpaceOnUse" x="45" y="0" width="251" height="161">
<path d="M45 0H295.333V160.833H45V0Z" fill="white"/>
</mask>
<g mask="url(#mask0_195_310)">
<path d="M117.573 5.7656L47.4688 71.9219C45.7396 73.5573 45.099 76.0364 45.8178 78.3021L52.8386 100.391C53.3021 101.833 54.1928 103.104 55.3959 104.031L125.995 158.224C128.182 159.906 131.302 159.594 133.115 157.516L134.63 155.776C136.328 153.833 139.135 153.302 141.427 154.495L151.792 159.901C153.417 160.75 155.292 160.995 157.089 160.594L250.672 139.76C252.964 139.25 254.396 136.964 253.859 134.677L252.74 129.917C252.146 127.406 252.948 124.776 254.833 123.021L293.474 87.026C295.87 84.7969 295.964 81.026 293.677 78.6823L219.182 2.17706C217.146 0.088521 213.823 -0.0260617 211.651 1.92706L200.458 11.9948C198.229 14 194.922 14.2187 192.443 12.526C188.453 9.79685 180.12 6.33852 169.984 6.33852C158.672 6.33852 150.078 11.2396 144.917 14.401C142.469 15.901 139.37 15.7969 137.021 14.151L124.354 5.27602C122.26 3.80727 119.427 4.0156 117.573 5.7656Z" fill="#F1F2EB"/>
</g>
<path d="M120.76 10.4688L58.7761 94.9531L132.297 150.557L192.083 64.4115L120.76 10.4688Z" fill="#0FB1EA"/>
<path d="M120.76 10.4688L52.1719 77.2396L58.7761 94.9531L120.76 10.4688Z" fill="#094459"/>
<path d="M164.005 61.8697C163.615 61.8697 163.224 61.7447 162.891 61.4895C162.089 60.875 161.932 59.7239 162.552 58.9218C162.708 58.7135 178.385 38.0833 176.573 24.7135C176.146 21.552 174.787 19.1458 172.412 17.3489C170.042 15.552 167.344 14.9062 164.198 15.3541C150.844 17.2656 135.323 37.9895 135.167 38.1979C134.563 39.0156 133.417 39.1875 132.599 38.5781C131.787 37.9739 131.615 36.8281 132.219 36.0156C132.891 35.1093 148.823 13.8541 163.677 11.7239C167.792 11.1302 171.479 12.0416 174.63 14.4218C177.776 16.802 179.656 20.1041 180.214 24.2239C182.224 39.1093 166.151 60.2604 165.464 61.151C165.104 61.6197 164.557 61.8697 164.005 61.8697Z" fill="#094459"/>
<path d="M129.885 50.8177L155.286 152.464L245.063 131.479L216.979 30.4635L129.885 50.8177Z" fill="#F7CE26"/>
<path d="M129.885 50.8177L136.844 146.271L155.286 152.464L129.885 50.8177Z" fill="#094459"/>
<path d="M158.651 59.7344C157.823 59.7344 157.073 59.1771 156.87 58.3385C156.604 57.2448 150.427 31.4062 158.281 18.6302C160.458 15.0885 163.516 12.8333 167.359 11.9375C171.198 11.0364 174.938 11.7031 178.469 13.9114C191.208 21.875 197.208 47.75 197.458 48.8437C197.682 49.8333 197.063 50.8125 196.073 51.0364C195.078 51.2708 194.099 50.6458 193.88 49.6562C193.823 49.401 187.964 24.1667 176.521 17.0156C173.813 15.3229 171.089 14.8333 168.193 15.5104C165.297 16.1875 163.078 17.8333 161.406 20.5469C154.349 32.0364 160.375 57.2135 160.438 57.4687C160.677 58.4531 160.073 59.4427 159.089 59.6823C158.943 59.7187 158.792 59.7344 158.651 59.7344Z" fill="#094459"/>
<path d="M145.786 65.9636L215.589 144.125L285.286 83.7969L213.401 7.44275L145.786 65.9636Z" fill="#F07423"/>
<path d="M145.786 65.9636L196.385 147.219L215.589 144.125L145.786 65.9636Z" fill="#094459"/>
<path d="M174.547 60.6927C174.042 60.6927 173.536 60.4844 173.172 60.073C172.427 59.2292 154.932 39.2344 155.938 24.2657C156.214 20.1198 157.87 16.7084 160.854 14.125C163.839 11.5417 167.458 10.3907 171.609 10.7032C186.594 11.8282 203.948 31.9375 204.677 32.7969C205.339 33.5625 205.245 34.724 204.474 35.3802C203.708 36.0365 202.547 35.948 201.891 35.1771C201.719 34.9792 184.792 15.3698 171.328 14.3594C168.167 14.1198 165.505 14.948 163.255 16.8959C161.005 18.8438 159.813 21.3334 159.599 24.5105C158.693 37.9688 175.75 57.448 175.922 57.6459C176.594 58.4011 176.521 59.5625 175.76 60.2344C175.411 60.5417 174.979 60.6927 174.547 60.6927Z" fill="#094459"/>
<path d="M106.687 266.781L106.219 266.234L108.094 263.62L109.75 264.286L108.937 269.828L107.615 267.969C107.323 267.557 107.01 267.156 106.687 266.781ZM234.943 267.969L236.271 269.828L237.083 264.286L235.427 263.62L233.552 266.234L234.016 266.781C234.339 267.156 234.651 267.557 234.943 267.969ZM41.1875 13.2812C40.7396 13.1666 40.3594 13.0885 39.9687 13.0364L15.5833 10.3229L17.9739 12.2812C20.3958 14.2708 21.7864 17.1979 21.7864 20.3125C21.7864 22.9375 20.7864 25.4531 18.9739 27.3906L18.5625 27.8333L19.9427 30.9948L20.5208 31.0156C23.5104 31.1198 38.4375 31.625 38.776 31.6302H38.7969C38.8385 31.6302 38.8802 31.6302 38.9219 31.625C39.2656 31.6198 39.6198 31.5937 39.9948 31.5468C40.3281 31.5052 40.6771 31.4375 41.0208 31.3541C43.0104 30.8645 44.8125 29.7135 46.0937 28.1145C46.3281 27.8177 46.5521 27.4948 46.776 27.1354C47.026 26.7239 47.2239 26.3489 47.3802 25.9791C47.8854 24.8073 48.1458 23.5677 48.1458 22.2916C48.1458 18.0729 45.2812 14.3698 41.1875 13.2812ZM250.708 266.208L245.198 273.885L245.422 274.37C245.885 275.38 246.125 276.443 246.125 277.531C246.125 281.708 242.714 285.109 238.526 285.109C238.005 285.109 237.484 285.057 236.969 284.948L236.302 284.812L235.974 285.406C234.802 287.562 233.146 289.464 231.177 290.906L229.948 291.802L231.318 292.464C233.578 293.557 236.005 294.109 238.526 294.109C247.687 294.109 255.141 286.672 255.141 277.531C255.141 273.771 253.839 270.083 251.464 267.146L250.708 266.208ZM123.375 266.208L117.865 273.885L118.089 274.37C118.557 275.375 118.792 276.443 118.792 277.531C118.792 281.708 115.385 285.109 111.193 285.109C110.677 285.109 110.151 285.057 109.641 284.948L108.969 284.807L108.646 285.406C107.474 287.562 105.812 289.464 103.844 290.906L102.615 291.802L103.99 292.464C106.25 293.557 108.672 294.109 111.193 294.109C120.354 294.109 127.812 286.672 127.812 277.531C127.812 273.771 126.505 270.083 124.135 267.146L123.375 266.208ZM303.911 65.9114C302.781 65.0729 301.443 64.5833 300.036 64.5L275.724 63.0833L277.667 64.8281C279.302 66.302 280.167 68.3958 280.036 70.5729C279.911 72.7031 278.849 74.651 277.12 75.927L275.083 77.4323L299.193 78.8333C299.318 78.8437 299.437 78.8437 299.562 78.8437C299.766 78.8437 299.969 78.8385 300.167 78.8229C300.562 78.7916 300.937 78.7343 301.286 78.651C301.667 78.5625 302.062 78.427 302.448 78.2604C304.974 77.177 306.641 74.8073 306.802 72.0885C306.943 69.677 305.865 67.3698 303.911 65.9114Z" fill="#EC8F3C"/>
<path d="M91.901 251.599H102.724V257.229H91.901V251.599ZM96.2604 275.542L95.75 273.688L91.1979 280.031C90.5938 280.87 89.6719 281.354 88.6719 281.354C88.2604 281.354 87.8542 281.271 87.4583 281.115C86.0885 280.563 85.3125 279.214 85.5208 277.75L86.6458 270.052L84.9792 271.073C82.6979 272.469 81.3385 274.885 81.3385 277.531C81.3385 281.708 84.7448 285.109 88.9323 285.109C91.2552 285.109 93.4219 284.063 94.8906 282.224C95.1823 281.854 95.4427 281.458 95.6615 281.047L95.6979 280.984L95.7135 280.938C96.0677 280.24 96.3073 279.49 96.4323 278.703L96.4479 278.609C96.5052 278.214 96.5313 277.87 96.5313 277.531C96.5313 277.193 96.5052 276.849 96.4375 276.391C96.3958 276.099 96.3333 275.813 96.2604 275.542ZM118.01 273.688L113.453 280.031C112.854 280.87 111.932 281.354 110.979 281.354L110.24 281.307L110.031 282.016C109.849 282.656 109.651 283.234 109.427 283.776L108.979 284.87L110.151 285.031C110.542 285.083 110.875 285.109 111.193 285.109C115.385 285.109 118.792 281.708 118.792 277.531C118.792 276.875 118.698 276.203 118.521 275.542L118.01 273.688ZM89.8021 240.49H98.6042L97.4323 239.01C96.974 238.432 96.5677 237.833 96.2188 237.234C93.6198 232.734 93.6198 227.365 96.2292 222.87L111.458 196.755H103.125L89.9948 219.276C86.276 225.693 86.1094 233.438 89.5469 240L89.8021 240.49ZM45.5208 28.7552C44.3594 29.9584 42.901 30.8334 41.2917 31.2813L40.2812 31.5625L46.0938 44.9115H53.9427L46.474 27.7709L45.5208 28.7552ZM245.344 273.682L240.786 280.031C240.188 280.859 239.281 281.344 238.297 281.354H237.552L237.365 282.016C237.182 282.656 236.984 283.229 236.76 283.776L236.313 284.87L237.484 285.031C237.875 285.083 238.203 285.109 238.526 285.109C242.714 285.109 246.125 281.708 246.125 277.531C246.125 276.875 246.031 276.208 245.849 275.542L245.344 273.682ZM295.208 104.052L294.115 102.922C294.568 103.432 294.844 104.104 294.844 104.833C294.844 106.016 294.13 107.037 293.115 107.49L294.568 106.932L288.182 135.563L287.109 134.391C287.516 134.891 287.76 135.526 287.76 136.219C287.76 137.401 287.052 138.417 286.036 138.87L287.589 138.229L281.432 165.839L281.391 165.969C281.37 166.052 281.339 166.146 281.302 166.24C281.26 166.359 281.208 166.479 281.151 166.594C281.104 166.693 281.068 166.76 281.031 166.828C280.958 166.948 280.88 167.063 280.797 167.177L280.75 167.234C280.714 167.287 280.682 167.328 280.661 167.354C280.552 167.479 280.443 167.583 280.328 167.688L280.219 167.792L280.188 167.818C280.016 167.953 279.839 168.073 279.672 168.167L279.63 168.188L279.526 168.234C279.37 168.313 279.214 168.38 279.047 168.432L278.984 168.453L278.828 168.49C278.688 168.526 278.536 168.563 278.385 168.578L278.328 168.594L278.229 168.604L253.229 171.021L254.234 169.401C254.276 169.333 254.313 169.26 254.344 169.193C254.401 169.078 254.453 168.958 254.5 168.828C254.531 168.745 254.563 168.646 254.589 168.547C254.615 168.469 254.625 168.438 254.63 168.406L255.708 163.568L274.979 161.708L280.016 139.125H261.161L262.458 133.318H281.313L287.016 107.74H268.156L269.453 101.932H288.307L293.531 78.5053L299.198 78.8334C299.339 78.8438 299.484 78.849 299.625 78.849C299.62 78.849 299.651 78.8438 299.688 78.8438H300.828L295.208 104.052ZM263.391 244.417H253.964L255.047 245.88C255.51 246.505 255.755 247.24 255.755 248.01C255.755 248.776 255.51 249.51 255.047 250.135L253.964 251.599H263.391C265.375 251.599 266.99 249.99 266.99 248.01C266.99 246.031 265.375 244.417 263.391 244.417ZM223.771 276.396C223.724 276.099 223.661 275.813 223.589 275.542L223.083 273.688L218.526 280.031C217.922 280.87 217.005 281.354 216 281.354C215.594 281.354 215.188 281.271 214.792 281.115C213.422 280.563 212.641 279.214 212.854 277.75L213.979 270.052L212.307 271.073C210.031 272.469 208.667 274.885 208.667 277.531C208.667 281.708 212.078 285.109 216.266 285.109C218.589 285.109 220.755 284.063 222.182 282.276L222.224 282.224C222.479 281.901 222.708 281.563 222.906 281.203L223.115 281.047V280.797C223.432 280.141 223.651 279.438 223.766 278.703L223.771 278.667C223.833 278.245 223.865 277.885 223.865 277.531C223.865 277.203 223.839 276.854 223.781 276.474L223.771 276.396ZM219.229 257.229H230.052V251.599H219.229V257.229Z" fill="#145DA0"/>
<mask id="mask1_195_310" style="mask-type:luminance" maskUnits="userSpaceOnUse" x="0" y="9" width="281" height="286">
<path d="M0.666687 9H280.667V294.167H0.666687V9Z" fill="white"/>
</mask>
<g mask="url(#mask1_195_310)">
<path d="M19.5573 26.7239L18.6042 27.9271L14.6615 18.8802C14.3177 18.0833 13.6875 17.4427 12.8906 17.0677C12.6615 16.9635 12.4167 16.8802 12.1719 16.8229C11.9323 16.7656 11.6875 16.7344 11.4427 16.7292H11.349C10.8542 16.7292 10.375 16.8281 9.92708 17.0208C9.04688 17.401 8.36458 18.1042 8.01563 18.9948C7.66146 19.8906 7.67708 20.8646 8.0625 21.7448L12.0052 30.7969L10.474 30.6667C5.125 30.2135 0.9375 25.6614 0.9375 20.3125C0.9375 14.5781 5.61458 9.91666 11.3646 9.91666C11.4687 9.91666 11.5677 9.92187 11.6719 9.92707L11.8021 9.93749C12.1406 9.94791 12.4792 9.97916 12.8021 10.026C13.1406 10.0729 13.4792 10.1354 13.8021 10.2135C18.5 11.3437 21.7865 15.4948 21.7865 20.3125C21.7865 22.651 21.0156 24.8698 19.5573 26.7239ZM105.203 274.161C105.115 273.719 104.995 273.255 104.854 272.786C104.234 270.729 103.234 268.828 101.875 267.146L101.115 266.208L95.6042 273.885L95.8281 274.37C96.2969 275.375 96.5313 276.443 96.5313 277.531C96.5313 278.932 96.1354 280.307 95.375 281.531C95.1823 281.844 94.9948 282.104 94.8125 282.328L94.7813 282.365C94.6146 282.568 94.4115 282.776 94.151 283.026C92.7292 284.37 90.875 285.109 88.9323 285.109C84.7448 285.109 81.3385 281.708 81.3385 277.531C81.3385 274.422 83.2135 271.661 86.1198 270.5L86.6094 270.302L87.9792 260.943L86.776 261.099C78.5313 262.172 72.3177 269.24 72.3177 277.531C72.3177 286.672 79.7708 294.109 88.9323 294.109C92.724 294.109 96.2969 292.859 99.2656 290.5L99.276 290.495C99.4948 290.323 99.7083 290.141 99.9167 289.958L100.318 289.76V289.594C100.443 289.474 100.568 289.354 100.693 289.229L100.724 289.198C102.646 287.266 104.073 284.875 104.854 282.276C104.995 281.812 105.115 281.349 105.203 280.901C105.359 280.161 105.464 279.385 105.516 278.594C105.536 278.24 105.552 277.891 105.552 277.531C105.552 277.177 105.536 276.823 105.516 276.469C105.464 275.682 105.359 274.906 105.203 274.161ZM232.536 274.161C232.443 273.719 232.328 273.255 232.188 272.786C231.568 270.729 230.563 268.828 229.203 267.146L228.448 266.208L222.938 273.885L223.161 274.37C223.625 275.38 223.865 276.443 223.865 277.531C223.865 278.932 223.469 280.307 222.708 281.531C222.526 281.818 222.354 282.068 222.182 282.281L222.146 282.307L222.089 282.396C221.922 282.589 221.729 282.792 221.484 283.026C220.063 284.37 218.208 285.109 216.266 285.109C212.078 285.109 208.667 281.708 208.667 277.531C208.667 274.422 210.547 271.661 213.453 270.5L213.943 270.302L215.307 260.943L214.109 261.099C205.865 262.172 199.651 269.24 199.651 277.531C199.651 286.672 207.104 294.109 216.266 294.109C220.057 294.109 223.63 292.859 226.599 290.5L226.604 290.495C226.859 290.292 227.104 290.089 227.344 289.875C227.578 289.667 227.807 289.453 228.026 289.229L228.057 289.198C229.979 287.266 231.406 284.875 232.188 282.276C232.328 281.812 232.443 281.349 232.536 280.901C232.693 280.161 232.797 279.385 232.844 278.594C232.87 278.24 232.885 277.891 232.885 277.531C232.885 277.177 232.87 276.823 232.844 276.469C232.797 275.682 232.693 274.906 232.536 274.161ZM273.271 62.9896L26.6563 48.6146C26.5104 48.6042 26.3698 48.5989 26.224 48.5989C24.4687 48.5989 22.776 49.2448 21.4531 50.4167C21.4063 50.4583 21.3646 50.5 21.2865 50.5781C20.9844 50.8646 20.7292 51.1406 20.5104 51.4323C20.2552 51.7604 20.0313 52.125 19.8333 52.5104C19.3698 53.4062 19.1094 54.3646 19.0521 55.3594C18.8542 58.6875 21.0469 61.7656 24.2604 62.6771C24.6563 62.7917 25.0729 62.8698 25.5104 62.9167L25.5885 62.9219C25.6667 62.9323 25.7396 62.9427 25.8177 62.9479L272.432 77.3229C272.557 77.3333 272.688 77.3333 272.818 77.3333C272.979 77.3333 273.141 77.3281 273.302 77.3177C273.682 77.2969 274.063 77.2448 274.438 77.1615C274.828 77.0729 275.219 76.9479 275.599 76.7917C276.026 76.6146 276.438 76.3906 276.823 76.1354C278.703 74.8906 279.906 72.8125 280.036 70.5729C280.271 66.625 277.234 63.2187 273.271 62.9896Z" fill="#F6BD3B"/>
</g>
<path d="M26.2188 48.6094C24.5677 48.6094 23.0156 49.1615 21.724 50.198L20.7865 50.9532L8.06251 21.7448C7.67709 20.8646 7.66147 19.8907 8.01563 18.9948C8.36459 18.1042 9.04688 17.4011 9.92709 17.0209C10.3802 16.823 10.8646 16.724 11.3594 16.724C11.7604 16.724 12.1719 16.7969 12.5781 16.9427C13.026 17.1042 13.4271 17.3386 13.7708 17.6459C14.1563 17.9948 14.4583 18.4115 14.6615 18.8802L27.6146 48.6094H26.2188ZM104.682 257.229H90.1354C89.2136 257.229 88.4219 257.912 88.2865 258.823L85.5208 277.75C85.2761 279.438 86.3177 280.656 87.4583 281.115C87.8438 281.266 88.2604 281.349 88.6771 281.349C89.6927 281.349 90.5833 280.88 91.1979 280.031L105.885 259.563C106.214 259.104 106.26 258.531 106 258.031C105.74 257.526 105.25 257.229 104.682 257.229ZM126.943 257.229H112.396C111.474 257.229 110.677 257.912 110.547 258.823L107.781 277.75C107.609 278.938 108.057 280.016 109.016 280.719C109.245 280.885 109.479 281.016 109.719 281.115C109.87 281.172 110.031 281.224 110.214 281.266C110.453 281.318 110.693 281.344 110.938 281.344C111.125 281.344 111.318 281.328 111.505 281.292C112.292 281.146 112.964 280.714 113.453 280.031L128.146 259.563C128.474 259.104 128.516 258.531 128.26 258.031C128 257.526 127.51 257.229 126.943 257.229ZM252.49 170.927L252.083 170.104L252.422 170.958C252.365 170.984 252.302 171.01 252.245 171.031L252.021 171.089C251.875 171.125 251.724 171.156 251.578 171.177L251.521 171.188L251.422 171.203L187.5 177.385L187.573 177.391C189.344 177.51 190.75 178.865 190.922 180.609C191.016 181.563 190.734 182.495 190.125 183.24C189.51 183.979 188.651 184.438 187.693 184.531L85.9115 194.51L69.4636 222.87C66.8542 227.365 66.8542 232.734 69.4531 237.234C72.0573 241.734 76.7188 244.417 81.9271 244.417H252.161C254.146 244.417 255.755 246.031 255.755 248.01C255.755 249.99 254.146 251.599 252.161 251.599H81.9271C74.1146 251.599 67.1198 247.568 63.2188 240.818C59.3177 234.073 59.3229 226.016 63.2344 219.276L80.6511 189.25L80.6875 189.203C80.7136 189.172 80.7396 189.141 80.7813 189.078C80.8542 188.964 80.9167 188.875 80.9844 188.792C81.0469 188.724 81.1042 188.667 81.1615 188.615L81.2708 188.51C81.349 188.432 81.4167 188.37 81.4896 188.313C81.5625 188.25 81.6354 188.203 81.7083 188.156L81.8229 188.083C81.9271 188.016 82 187.969 82.0781 187.932C82.1563 187.891 82.2292 187.859 82.3073 187.828L82.4688 187.766C82.5677 187.729 82.6458 187.698 82.7292 187.672C82.8177 187.646 82.9115 187.63 83.0573 187.604L83.1198 187.594C83.1511 187.589 83.1823 187.583 83.2292 187.568L83.2969 187.552L151.63 180.854L82.9896 187.49C82.9063 187.5 82.8333 187.5 82.7552 187.505L82.599 187.51C82.4271 187.505 82.2396 187.484 82.0313 187.448L81.8438 187.412C81.7083 187.38 81.5781 187.344 81.4479 187.297C81.375 187.271 81.3125 187.25 81.2552 187.224C81.1146 187.162 80.9792 187.094 80.8542 187.021L80.7656 186.979L80.7292 186.953C80.5625 186.849 80.4011 186.729 80.2552 186.604L80.224 186.573L80.1927 186.537C80.0521 186.401 79.9427 186.287 79.8438 186.162C79.8229 186.135 79.7917 186.099 79.7448 186.031C79.6458 185.891 79.5781 185.781 79.5156 185.672C79.474 185.599 79.4375 185.531 79.4011 185.458L79.375 185.417L79.3438 185.349L26.0208 62.9584L34.0729 63.4271L69.9636 145.813L68.1302 141.599L95.3906 140.453L85.5729 105.25L52.1354 104.88L49.7604 99.4375L84.0573 99.8125L74.5729 65.7865L80.3021 66.125L89.7136 99.875L126.464 100.281L122.422 68.5782L127.943 68.9011L131.948 100.344L165.255 100.714L164.641 71.0417L170.083 71.3594L170.688 100.771L200.646 101.104L202.964 73.2761L208.385 73.5886L206.094 101.162L234.901 101.479L239.25 75.3907L244.703 75.7084L240.396 101.542L262.115 101.781L267.63 77.0417L272.432 77.323C272.573 77.3334 272.714 77.3386 272.859 77.3386C272.906 77.3386 272.953 77.3334 273 77.3282L273.141 77.323C273.333 77.3125 273.516 77.3021 273.698 77.2813L274.979 77.1303L274.688 78.4688L254.625 168.443L254.583 168.563C254.557 168.651 254.526 168.745 254.5 168.833C254.448 168.964 254.401 169.078 254.344 169.188C254.297 169.287 254.26 169.354 254.224 169.427C254.151 169.547 254.073 169.662 253.99 169.771L253.948 169.828C253.906 169.885 253.88 169.922 253.849 169.953C253.75 170.073 253.635 170.177 253.516 170.287L253.417 170.385L253.38 170.412C253.214 170.552 253.031 170.672 252.865 170.76L252.818 170.787L252.708 170.833C252.641 170.87 252.568 170.901 252.49 170.927ZM260.906 107.188L239.495 106.953L234.891 134.589L254.99 133.745L260.906 107.188ZM253.766 139.219L233.979 140.052L229.641 166.094L225.135 166.531L248.172 164.302L253.766 139.219ZM224.042 166.635L228.432 140.287L202.745 141.365L200.453 168.917L194.958 169.448L197.276 141.594L171.552 142.677L172.151 171.656L224.042 166.635ZM136 175.151L132.073 144.333L102.458 145.578L111.37 177.531L136 175.151ZM91.2344 105.313L100.964 140.219L131.385 138.938L127.151 105.714L91.2344 105.313ZM132.641 105.771L136.833 138.708L166.01 137.484L165.365 106.135L132.641 105.771ZM136.521 175.099L166.724 172.182L166.12 142.906L137.521 144.104L141.411 174.63L136.521 175.099ZM170.802 106.193L171.443 137.255L197.729 136.151L200.193 106.516L170.802 106.193ZM205.641 106.578L203.198 135.922L229.344 134.823L234 106.891L205.641 106.578ZM70.4531 146.927L84.9011 180.094L107.859 177.875L105.88 178.063L96.8854 145.813L70.4531 146.927ZM254.276 257.229H239.729C238.807 257.229 238.01 257.912 237.88 258.823L235.115 277.75C234.943 278.938 235.391 280.016 236.344 280.719C236.573 280.885 236.813 281.016 237.052 281.115C237.198 281.172 237.365 281.224 237.547 281.266C237.786 281.318 238.026 281.344 238.266 281.344C238.458 281.344 238.651 281.328 238.839 281.292C239.625 281.146 240.297 280.714 240.786 280.031L255.479 259.563C255.807 259.104 255.849 258.531 255.594 258.031C255.333 257.526 254.839 257.229 254.276 257.229ZM232.016 257.229H217.469C216.547 257.229 215.75 257.912 215.62 258.823L212.854 277.75C212.609 279.438 213.651 280.656 214.792 281.115C215.177 281.266 215.594 281.349 216.01 281.349C217.021 281.349 217.917 280.88 218.526 280.031L233.219 259.563C233.547 259.104 233.589 258.531 233.333 258.031C233.073 257.526 232.578 257.229 232.016 257.229Z" fill="#7BC9C0"/>
<mask id="mask2_195_310" style="mask-type:luminance" maskUnits="userSpaceOnUse" x="0" y="9" width="308" height="286">
<path d="M0 9H308V295H0V9Z" fill="white"/>
</mask>
<g mask="url(#mask2_195_310)">
<path d="M300.089 63.5885L56.9062 49.4115L54.7864 44.5469L47.4687 27.75C48.4739 26.1667 49.0625 24.3021 49.0625 22.2917C49.0625 17.151 45.2031 12.7813 40.0885 12.1302C40.0833 12.1302 40.0833 12.1302 40.0781 12.1302L12.8333 9.09375C12.8073 9.09375 12.776 9.09375 12.75 9.09375C12.2969 9.03646 11.8333 9 11.3646 9C5.10935 9 0.020813 14.0729 0.020813 20.3125C0.020813 26.5521 5.10935 31.625 11.3646 31.625L19.7604 50.8958C18.7969 52.1615 18.2291 53.6823 18.1354 55.3073C17.8802 59.6406 21.1094 63.375 25.3958 63.8177L78.5 185.714C78.5208 185.766 78.5469 185.813 78.5729 185.854C78.6146 185.943 78.6614 186.031 78.7135 186.115C78.7916 186.26 78.8802 186.401 78.9948 186.557C79.0416 186.62 79.0833 186.682 79.1302 186.74C79.2552 186.891 79.3854 187.036 79.5364 187.182C79.5729 187.214 79.6041 187.25 79.6406 187.281C79.8229 187.443 80.026 187.594 80.2396 187.729C80.2812 187.755 80.3281 187.781 80.3906 187.813C80.4531 187.849 80.5156 187.875 80.5781 187.906L80.5469 187.932C80.4583 188.016 80.375 188.099 80.2916 188.198C80.1875 188.318 80.0989 188.443 80.0156 188.573L80.7552 189.115L79.9687 188.635C79.9114 188.708 79.8594 188.781 79.8125 188.859L62.4375 218.818C58.3594 225.844 58.3541 234.24 62.4219 241.276C66.4948 248.313 73.7812 252.516 81.9271 252.516H90.9844V256.313H90.1354C88.7604 256.313 87.5781 257.333 87.3802 258.693L87.1666 260.13C78.3281 261.016 71.401 268.484 71.401 277.531C71.401 287.177 79.2656 295.021 88.9323 295.021C93.1562 295.021 97.0364 293.526 100.062 291.036C100.125 291.083 100.182 291.13 100.245 291.177C100.276 291.203 100.312 291.234 100.349 291.26C100.589 291.448 100.833 291.63 101.089 291.813C101.141 291.849 101.198 291.891 101.255 291.927C101.542 292.13 101.839 292.323 102.141 292.505C102.146 292.505 102.146 292.51 102.151 292.51C104.792 294.104 107.891 295.021 111.193 295.021C120.865 295.021 128.729 287.177 128.729 277.531C128.729 273.203 127.141 269.245 124.521 266.188L128.891 260.099C129.417 259.365 129.49 258.411 129.078 257.609C128.661 256.807 127.844 256.313 126.943 256.313H125.901V252.516H218.312V256.313H217.469C216.094 256.313 214.906 257.333 214.708 258.693L214.5 260.13C205.656 261.016 198.734 268.484 198.734 277.531C198.734 287.177 206.599 295.021 216.266 295.021C220.49 295.021 224.365 293.526 227.396 291.036C227.453 291.083 227.516 291.13 227.573 291.177C227.609 291.203 227.646 291.234 227.682 291.26C227.922 291.448 228.167 291.63 228.417 291.813C228.474 291.849 228.526 291.891 228.583 291.927C228.875 292.13 229.172 292.323 229.474 292.505L229.479 292.51H229.484C232.125 294.104 235.219 295.021 238.526 295.021C248.193 295.021 256.062 287.177 256.062 277.531C256.062 273.203 254.474 269.245 251.854 266.188L256.224 260.099C256.75 259.365 256.823 258.411 256.406 257.609C255.995 256.807 255.177 256.313 254.276 256.313H253.234V252.516H263.391C265.88 252.516 267.906 250.495 267.906 248.01C267.906 245.526 265.88 243.505 263.391 243.505H108.693C108.687 243.505 108.687 243.505 108.687 243.505C108.297 243.505 107.906 243.479 107.521 243.448C107.427 243.443 107.339 243.432 107.245 243.422C106.885 243.385 106.526 243.333 106.172 243.271C106.151 243.266 106.125 243.26 106.104 243.26C105.703 243.182 105.312 243.089 104.927 242.974C104.885 242.964 104.849 242.953 104.812 242.943C102.807 242.349 100.958 241.292 99.4271 239.828C99.4219 239.828 99.4166 239.828 99.4166 239.823C98.4896 238.943 97.6771 237.927 97.0156 236.776C94.5781 232.563 94.5833 227.536 97.0208 223.328L112.25 197.214L113.646 194.823L114.953 192.583L187.781 185.443C188.984 185.323 190.068 184.75 190.833 183.818C191.599 182.891 191.953 181.719 191.839 180.521C191.74 179.547 191.333 178.677 190.729 177.99L251.557 172.109C251.594 172.104 251.625 172.099 251.651 172.094L278.365 169.51C278.427 169.505 278.49 169.495 278.495 169.49C278.693 169.464 278.88 169.422 279.125 169.359C279.193 169.344 279.266 169.323 279.333 169.302C279.526 169.24 279.714 169.161 279.932 169.052C279.99 169.031 280.047 169.005 280.099 168.979C280.328 168.849 280.557 168.698 280.766 168.526C280.818 168.484 280.87 168.438 280.943 168.365C281.089 168.234 281.224 168.104 281.359 167.948C281.406 167.891 281.448 167.833 281.531 167.724C281.635 167.583 281.734 167.443 281.823 167.286C281.88 167.198 281.927 167.099 281.979 166.995C282.047 166.854 282.109 166.703 282.167 166.552C282.208 166.432 282.245 166.318 282.281 166.198C282.302 166.135 282.323 166.073 282.339 166.005L301.625 79.5052C304.969 78.651 307.51 75.7292 307.719 72.1406C307.979 67.6823 304.557 63.849 300.089 63.5885ZM302.089 77.4219C301.76 77.5625 301.422 77.6771 301.073 77.7604C300.755 77.8385 300.432 77.8854 300.099 77.9115C299.818 77.9323 299.536 77.9375 299.25 77.9219L294.661 77.6563L293.734 77.599L292.807 77.5469L277.667 76.6615C279.542 75.2813 280.807 73.1146 280.953 70.6302C281.104 68.0833 280.047 65.7396 278.281 64.151L296.599 65.2188L299.984 65.4167C301.255 65.4896 302.411 65.9375 303.365 66.6458C305 67.8646 306.016 69.8542 305.885 72.0313C305.745 74.4688 304.203 76.5104 302.089 77.4219ZM280.505 165.724C280.49 165.792 280.464 165.859 280.437 165.932C280.406 166.021 280.37 166.109 280.328 166.198C280.297 166.255 280.271 166.313 280.24 166.365C280.187 166.458 280.125 166.542 280.062 166.625L280.01 166.693C279.995 166.719 279.974 166.745 279.964 166.76C279.885 166.849 279.802 166.927 279.714 167.005L279.609 167.104C279.484 167.208 279.349 167.297 279.234 167.359C279.193 167.38 279.151 167.396 279.115 167.417C279 167.474 278.885 167.526 278.76 167.563L278.604 167.604C278.495 167.63 278.38 167.656 278.266 167.672C278.224 167.677 278.182 167.682 278.141 167.693L254.984 169.932C254.995 169.917 255.005 169.901 255.016 169.885C255.073 169.792 255.12 169.693 255.172 169.594C255.24 169.448 255.302 169.302 255.359 169.146C255.401 169.031 255.437 168.911 255.469 168.797C255.495 168.734 255.51 168.672 255.526 168.604L256.464 164.417L275.068 162.615C275.464 162.578 275.792 162.292 275.875 161.906L280.75 140.042H284.849C285.365 140.042 285.859 139.938 286.312 139.75L280.547 165.589C280.531 165.63 280.521 165.672 280.505 165.724ZM226.099 172.734L224.068 172.927L200.073 175.25L198.036 175.448L197.234 175.521L195.224 175.719L187.516 176.464L172.208 177.943L170.172 178.141L169.422 178.214L167.344 178.411L151.703 179.927L141.833 180.88L139.766 181.083L139.031 181.151L136.995 181.349L112.297 183.74L110.281 183.932L109.474 184.01L107.427 184.208L82.901 186.578C82.8021 186.589 82.7135 186.589 82.6146 186.594C82.4896 186.594 82.3541 186.578 82.1875 186.547L82.0469 186.516C81.9479 186.495 81.8541 186.469 81.7552 186.432C81.7031 186.417 81.6562 186.396 81.6094 186.38C81.5052 186.333 81.4062 186.286 81.3125 186.229C81.2969 186.224 81.2291 186.188 81.2187 186.182C81.0885 186.099 80.9739 186.01 80.8698 185.922C80.8594 185.911 80.8073 185.859 80.7969 185.849C80.7135 185.771 80.6354 185.682 80.5573 185.589C80.5364 185.563 80.5156 185.531 80.4687 185.464C80.4114 185.385 80.3594 185.307 80.3125 185.224C80.2812 185.172 80.2552 185.12 80.2291 185.063C80.2187 185.047 80.1979 185.005 80.1823 184.984L63.9531 147.734L63.1302 145.839L62 143.25L45.5208 105.427L44.7031 103.542L44.4062 102.859L43.5677 100.943L27.4531 63.9583L33.4531 64.3073L48.3541 98.5052L48.7552 99.4219L49.1562 100.344L50.7291 103.953L51.125 104.87L51.526 105.792L66.7552 140.74L67.5364 142.542L69.0781 146.068L69.4687 146.969L69.8594 147.865L84.0573 180.458C84.2187 180.823 84.5989 181.036 84.9896 181.005L105.198 179.052L106.13 178.958L107.057 178.87L110.693 178.521L111.62 178.427L112.547 178.339L135.198 176.151L136.115 176.063L137.026 175.974L140.609 175.625L141.526 175.536L142.437 175.448L165.828 173.188L167.661 173.01L171.25 172.661L173.083 172.484L193.953 170.469L194.88 170.375L195.807 170.286L199.448 169.938L200.375 169.844L201.307 169.755L222.937 167.661L223.885 167.573L224.833 167.479L228.536 167.12L229.484 167.031L230.432 166.938L248.26 165.214C248.656 165.177 248.984 164.891 249.068 164.5L254.51 140.104L254.714 139.177L254.922 138.255L255.052 137.656L255.729 134.63L255.937 133.703L256 133.427L256.141 132.776L261.641 108.115L261.844 107.198L262.047 106.286L262.083 106.13L262.849 102.703L262.974 102.135L263.052 101.792L263.255 100.88L268.354 78.0052L272.38 78.2396C272.542 78.2448 272.698 78.25 272.859 78.25C272.969 78.25 273.073 78.2396 273.182 78.2344C273.391 78.2292 273.599 78.2135 273.807 78.1927L273.792 78.2708L268.719 101.016L268.516 101.932L268.339 102.719L268.307 102.844L267.88 104.766L267.729 105.458L267.422 106.823L267.276 107.484L267.219 107.74L267.016 108.656L261.719 132.401L261.516 133.318L261.312 134.229L261.245 134.526L260.792 136.557L260.625 137.313L260.422 138.208L260.219 139.125L260.182 139.286L260.016 140.042L254.958 162.724L254.75 163.661L254.542 164.604L253.74 168.188C253.724 168.229 253.714 168.271 253.698 168.318C253.677 168.391 253.656 168.464 253.635 168.526C253.599 168.615 253.562 168.703 253.521 168.792C253.49 168.849 253.464 168.906 253.427 168.964C253.375 169.057 253.318 169.141 253.255 169.219L253.208 169.286C253.187 169.313 253.172 169.339 253.151 169.359C253.078 169.448 252.995 169.526 252.901 169.609L252.807 169.703C252.677 169.807 252.542 169.896 252.427 169.958C252.385 169.974 252.344 169.995 252.307 170.01C252.234 170.047 252.167 170.073 252.094 170.104C252.047 170.12 252.005 170.146 251.958 170.161L251.797 170.203C251.682 170.229 251.573 170.255 251.458 170.271C251.417 170.276 251.375 170.281 251.333 170.292L251.109 170.313L250.146 170.406L228.922 172.458L226.88 172.656L226.099 172.734ZM19.9687 55.4115C20.0208 54.5313 20.2552 53.6927 20.6458 52.9271C20.8177 52.599 21.0104 52.2813 21.2396 51.9844C21.4427 51.724 21.6719 51.474 21.9166 51.2448C21.9635 51.1979 22.0104 51.1458 22.0625 51.099C23.2239 50.0677 24.6875 49.5156 26.2239 49.5156C26.3489 49.5156 26.4739 49.5208 26.6041 49.526L27.026 49.5521L28.0521 49.6094L29.0781 49.6719L47.6406 50.75L48.1823 50.7813L48.6666 50.8125L49.6927 50.8698L49.7812 50.875L52.625 51.0417L55.6927 51.224L56.7187 51.2813L57.7448 51.3438L273.219 63.901C276.677 64.1042 279.323 67.0729 279.12 70.5208C279 72.5573 277.906 74.3177 276.312 75.375C275.979 75.599 275.625 75.7865 275.25 75.9427C274.922 76.0781 274.583 76.1875 274.234 76.2656C273.917 76.3385 273.583 76.3854 273.25 76.4063C272.995 76.4219 272.745 76.4271 272.484 76.4115L268.76 76.1927L267.833 76.1406L266.901 76.0833L245.536 74.8385L244.573 74.7813L243.568 74.724L240.49 74.5469L239.484 74.4844L238.526 74.4323L209.24 72.724L208.276 72.6667L207.266 72.6094L204.193 72.4271L203.187 72.3698L202.229 72.3125L170.922 70.4896L169.953 70.4323L168.953 70.375L165.875 70.1927L164.87 70.1354L163.906 70.0781L128.734 68.0313L127.786 67.974L126.781 67.9167L123.698 67.7344L122.693 67.6771L121.729 67.6198L81.0104 65.25L80.0416 65.1927L79.0312 65.1302L75.9531 64.9531L74.9531 64.8958L73.9791 64.8385L49.2083 63.3958L47.5729 63.2969L34.6875 62.5469L33.6614 62.4896L32.6354 62.4271L26.6354 62.0781L25.8698 62.0313C25.7812 62.026 25.6927 62.0104 25.6041 62.0052C25.2291 61.9635 24.8646 61.901 24.5104 61.7969C21.75 61.0104 19.7916 58.3958 19.9687 55.4115ZM13.2916 31.4479L12.9896 30.7604L12.9114 30.5833L12.5833 29.8281L12.5364 29.7135L12.4844 29.6042L11.6771 27.7448L10.8698 25.8906L8.90102 21.3802C8.61977 20.724 8.60415 19.9948 8.86977 19.3333C9.13019 18.6667 9.6354 18.1458 10.2916 17.8594C10.6406 17.7083 11 17.6406 11.3594 17.6406C11.6719 17.6406 11.9791 17.6979 12.2656 17.8021C12.5937 17.9219 12.8958 18.0937 13.1562 18.3281C13.4323 18.5781 13.6614 18.8854 13.8229 19.2448L17.4531 27.5833L17.8333 28.4531L18.2083 29.3125L18.5208 30.0313L18.9271 30.9635L19.3281 31.8906L26.2135 47.6927C24.3698 47.6927 22.5937 48.3177 21.151 49.4844L13.3958 31.6875L13.2916 31.4479ZM11.3646 10.8281C11.5 10.8281 11.6302 10.8437 11.7604 10.849C12.0729 10.8646 12.375 10.8906 12.6771 10.9323C12.9844 10.974 13.2864 11.0313 13.5833 11.1042C17.7552 12.1042 20.8698 15.849 20.8698 20.3125C20.8698 22.5156 20.1041 24.5417 18.8333 26.1563L15.5052 18.5156C15.0521 17.474 14.2396 16.6927 13.2812 16.2396C12.9896 16.1042 12.6875 16 12.3802 15.9323C12.0833 15.8594 11.776 15.8229 11.4687 15.8125C10.8333 15.7969 10.1823 15.9115 9.56248 16.1823C8.45311 16.6615 7.60415 17.5417 7.16144 18.6615C6.71873 19.7813 6.73956 21.0052 7.21873 22.1094L10.5521 29.7552C5.68748 29.3385 1.85415 25.2656 1.85415 20.3125C1.85415 15.0833 6.11977 10.8281 11.3646 10.8281ZM36.4271 13.5625L39.8646 13.9479C40.2396 13.9948 40.5989 14.0729 40.9531 14.1667C44.5937 15.1354 47.2239 18.4427 47.2239 22.2917C47.2239 23.474 46.9791 24.599 46.5364 25.6146C46.3802 25.9792 46.1927 26.3229 45.9896 26.6563C45.8021 26.9635 45.5989 27.2604 45.375 27.5417C44.2291 28.9687 42.6302 30.0156 40.8021 30.4635C40.5 30.5365 40.1927 30.599 39.875 30.6406C39.5573 30.6823 39.2344 30.7083 38.9062 30.7083C38.8698 30.7135 38.8333 30.7188 38.7969 30.7188C38.5364 30.7083 29.2031 30.3958 20.5521 30.099L19.6458 28.0156C21.5364 25.9948 22.7031 23.2917 22.7031 20.3125C22.7031 16.7969 21.0885 13.651 18.5573 11.5729L36.4271 13.5625ZM260.172 106.266L238.719 106.026L233.802 135.552L253.833 134.708L253.021 138.333L233.198 139.167L228.849 165.25L225.141 165.609L229.526 139.323L201.901 140.484L199.604 168.083L195.964 168.432L198.276 140.635L170.615 141.797L171.214 170.828L167.625 171.172L167.021 141.948L136.484 143.234L140.38 173.807L136.797 174.156L132.875 143.385L101.266 144.714L110.193 176.729L106.557 177.078L97.5729 144.87L71.0416 145.984L69.5052 142.458L96.5833 141.318L86.276 104.344L52.7396 103.974L51.1666 100.365L85.2708 100.745L75.7969 66.776L79.5937 67L89.0156 100.786L127.505 101.208L123.474 69.5573L127.13 69.7708L131.135 101.25L166.187 101.635L165.578 72.0104L169.182 72.224L169.792 101.677L201.49 102.026L203.802 74.2396L207.396 74.4479L205.099 102.068L235.677 102.406L240.016 76.349L243.63 76.5625L239.318 102.443L260.974 102.682L260.172 106.266ZM235.979 133.625L240.271 107.875L259.766 108.094L254.245 132.859L235.979 133.625ZM234.766 140.932L252.609 140.182L247.422 163.458L230.74 165.068L234.766 140.932ZM203.594 142.245L227.344 141.245L223.25 165.792L201.458 167.901L203.594 142.245ZM172.49 143.552L196.276 142.552L194.104 168.615L173.047 170.651L172.49 143.552ZM138.557 144.979L165.224 143.859L165.792 171.349L142.208 173.63L138.557 144.979ZM103.656 146.448L131.271 145.286L134.969 174.333L112.047 176.547L103.656 146.448ZM96.1979 146.76L104.703 177.26L85.4791 179.12L71.8229 147.786L96.1979 146.76ZM84.875 106.161L94.1979 139.589L68.7187 140.656L53.5416 105.813L84.875 106.161ZM121.609 69.4479L125.417 99.3542L90.4166 98.9688L81.5312 67.1094L121.609 69.4479ZM164.318 99.7865L132.755 99.4375L128.99 69.8802L163.74 71.9063L164.318 99.7865ZM201.969 74.1354L199.802 100.177L171.589 99.8646L171.021 72.3281L201.969 74.1354ZM238.177 76.2448L234.125 100.557L207.089 100.26L209.229 74.5573L238.177 76.2448ZM73.875 66.6667C73.8958 66.7552 73.9114 66.8385 73.9375 66.9271L82.8489 98.8854L50.3646 98.526L35.5104 64.4271L73.875 66.6667ZM241.479 100.635L245.474 76.6667L266.5 77.8958L261.38 100.859L241.479 100.635ZM278.87 140.042L274.229 160.859L256.88 162.536L261.896 140.042H278.87ZM262.307 138.208L263.193 134.229H284.849C285.948 134.229 286.844 135.12 286.844 136.219C286.844 137.318 285.948 138.208 284.849 138.208H262.307ZM263.599 132.401L268.896 108.656H285.87L280.578 132.401H263.599ZM269.302 106.823L270.187 102.844H291.932C293.031 102.844 293.922 103.734 293.922 104.833C293.922 105.932 293.031 106.823 291.932 106.823H269.302ZM270.599 101.016L275.646 78.3802L292.401 79.3542L287.573 101.016H270.599ZM46.8177 48.8698L28.2604 47.7865L21.3646 31.9583C29.4114 32.2344 38.6666 32.5469 38.7812 32.5469C39.0885 32.5469 39.3906 32.526 39.6875 32.5L46.8177 48.8698ZM46.6979 43.9948L41.5416 32.1615C43.3333 31.6615 44.9271 30.6927 46.1823 29.3906L52.5416 43.9948H46.6979ZM287.672 133.646C286.969 132.88 285.964 132.401 284.849 132.401H282.453L287.75 108.656H291.932C292.411 108.656 292.875 108.563 293.302 108.396L287.672 133.646ZM294.687 102.188C293.99 101.469 293.01 101.016 291.932 101.016H289.453L294.26 79.4635L299.146 79.75C299.302 79.7604 299.464 79.7656 299.625 79.7656C299.646 79.7656 299.667 79.7604 299.687 79.7604L294.687 102.188ZM81.4166 189.76C81.4479 189.719 81.4844 189.677 81.5416 189.589C81.5885 189.521 81.6302 189.448 81.6823 189.385C81.7239 189.344 81.7656 189.302 81.8125 189.26L81.8698 189.203L81.9166 189.161C81.9635 189.115 82.0104 189.068 82.0625 189.026C82.1094 188.984 82.1614 188.953 82.2135 188.922L82.3229 188.854C82.3802 188.813 82.4375 188.776 82.5 188.745C82.5521 188.719 82.6146 188.693 82.6719 188.672L82.8073 188.62C82.8646 188.594 82.9219 188.573 82.9844 188.552C83.0573 188.531 83.1354 188.521 83.2708 188.5C83.3281 188.49 83.3802 188.474 83.4583 188.458L108.38 186.01L109.469 185.906L151.776 181.76L187.51 178.302C188.802 178.391 189.88 179.38 190.01 180.698C190.078 181.411 189.87 182.104 189.411 182.656C188.958 183.208 188.318 183.552 187.604 183.62L114.073 190.828L113.307 190.906L107.25 191.5L106.125 191.609L105.469 191.672L105 191.719L85.8229 193.599C85.526 193.63 85.2656 193.797 85.1146 194.052L68.6666 222.411C65.8958 227.193 65.8906 232.906 68.6614 237.693C71.4271 242.474 76.3854 245.333 81.9271 245.333H108.687C108.693 245.333 108.693 245.333 108.693 245.333H252.161C253.635 245.333 254.839 246.531 254.839 248.01C254.839 249.484 253.635 250.682 252.161 250.682H81.9271C74.4479 250.682 67.75 246.823 64.0156 240.365C60.276 233.901 60.2812 226.188 64.026 219.729L81.4166 189.76ZM95.4271 237.693C95.8125 238.359 96.2448 238.984 96.7135 239.578H90.3594C87.0573 233.281 87.1979 225.927 90.7916 219.734L103.656 197.667H109.859L95.4323 222.411C92.6614 227.193 92.6562 232.906 95.4271 237.693ZM102.333 196.292L89.2031 218.818C85.1927 225.729 85.1302 233.964 89 240.927L89.0625 241.047C89.0937 241.099 89.125 241.156 89.151 241.208C89.1666 241.234 89.1771 241.255 89.1875 241.276C89.1979 241.292 89.2031 241.302 89.2135 241.313C89.4271 241.688 89.6562 242.052 89.8958 242.411C89.9948 242.563 90.0989 242.708 90.1979 242.854C90.3437 243.068 90.4948 243.276 90.6458 243.479C90.651 243.49 90.6562 243.495 90.6614 243.505H81.9271C77.0521 243.505 72.6823 240.99 70.25 236.776C67.8125 232.563 67.8177 227.536 70.2604 223.328L86.4687 195.375L103.865 193.672L102.333 196.292ZM263.391 245.333C264.87 245.333 266.068 246.531 266.068 248.01C266.068 249.484 264.87 250.682 263.391 250.682H255.786C256.344 249.932 256.677 249.01 256.677 248.01C256.677 247.005 256.344 246.083 255.786 245.333H263.391ZM254.776 258.448C254.823 258.542 254.911 258.781 254.734 259.031L250.568 264.833L250.026 265.583L249.49 266.339L245.214 272.292L244.656 273.068L244.089 273.854L240.042 279.5C239.651 280.042 239.156 280.302 238.672 280.396C238.349 280.453 238.036 280.438 237.75 280.37C237.625 280.344 237.505 280.307 237.396 280.266C237.224 280.198 237.052 280.099 236.885 279.979C236.328 279.568 235.88 278.87 236.021 277.88L236.625 273.771L236.927 271.682L237.021 271.047L237.161 270.083L237.182 269.948L237.302 269.135L238.359 261.875L238.495 260.958L238.625 260.047L238.786 258.953C238.854 258.49 239.26 258.141 239.729 258.141H254.276C254.583 258.141 254.729 258.354 254.776 258.448ZM238.526 293.193C236.089 293.193 233.781 292.635 231.719 291.641C233.833 290.094 235.552 288.104 236.781 285.844C237.344 285.964 237.927 286.026 238.526 286.026C243.219 286.026 247.042 282.214 247.042 277.531C247.042 276.266 246.755 275.068 246.255 273.984L250.75 267.724C252.922 270.411 254.224 273.823 254.224 277.531C254.224 286.167 247.182 293.193 238.526 293.193ZM226.026 289.781C223.344 291.911 219.953 293.193 216.266 293.193C207.609 293.193 200.568 286.167 200.568 277.531C200.568 269.589 206.531 263.01 214.224 262.01L213.109 269.651C209.974 270.906 207.75 273.964 207.75 277.531C207.75 282.214 211.573 286.026 216.266 286.026C218.531 286.026 220.589 285.13 222.115 283.688C222.12 283.682 222.125 283.677 222.135 283.672C222.375 283.443 222.609 283.203 222.823 282.948V282.943C223.068 282.651 223.281 282.339 223.484 282.016C223.49 282.01 223.495 282 223.495 281.995C224.307 280.698 224.781 279.172 224.781 277.531C224.781 276.266 224.495 275.068 223.995 273.984L228.49 267.724C229.75 269.281 230.719 271.083 231.307 273.052C231.432 273.474 231.547 273.906 231.641 274.349C231.786 275.057 231.885 275.786 231.932 276.531C231.953 276.859 231.964 277.198 231.964 277.531C231.964 277.87 231.953 278.203 231.932 278.536C231.885 279.276 231.786 280.005 231.641 280.719C231.547 281.156 231.437 281.589 231.307 282.016C230.557 284.51 229.203 286.75 227.406 288.557C227.401 288.557 227.401 288.563 227.396 288.563C227.182 288.781 226.958 288.99 226.729 289.193C226.505 289.396 226.271 289.589 226.031 289.776C226.031 289.781 226.031 289.781 226.026 289.781ZM216.37 260.047L216.526 258.953C216.594 258.49 217 258.141 217.469 258.141H232.016C232.323 258.141 232.469 258.354 232.516 258.448C232.562 258.542 232.651 258.781 232.474 259.031L230.26 262.109L230.245 262.135L228.859 264.063L228.854 264.073L228.307 264.833L227.766 265.583L227.229 266.339L222.953 272.292L222.615 272.766L222.609 272.771L222.396 273.068L221.833 273.854L221.229 274.693L221.224 274.698L217.781 279.5C217.026 280.547 215.885 280.568 215.135 280.266C214.385 279.964 213.578 279.161 213.766 277.88L214.76 271.047L214.901 270.083L215.042 269.135L216.099 261.875L216.234 260.958L216.37 260.047ZM240.573 252.516V256.313H239.729C238.354 256.313 237.167 257.333 236.969 258.693L236.76 260.13C235.63 260.245 234.526 260.469 233.469 260.786L233.964 260.099C234.49 259.365 234.562 258.411 234.146 257.609C233.734 256.807 232.917 256.313 232.016 256.313H230.974V252.516H240.573ZM238.26 282.271C239.531 282.271 240.74 281.667 241.531 280.563L244.964 275.781C245.115 276.344 245.203 276.927 245.203 277.531C245.203 281.208 242.208 284.193 238.526 284.193C238.214 284.193 237.911 284.167 237.609 284.125C237.859 283.521 238.068 282.896 238.245 282.266C238.25 282.266 238.255 282.271 238.26 282.271ZM222.198 280.583C222 280.964 221.766 281.323 221.505 281.656C221.5 281.661 221.495 281.667 221.49 281.672C220.266 283.208 218.38 284.193 216.266 284.193C212.583 284.193 209.589 281.208 209.589 277.531C209.589 275.13 210.87 273.026 212.786 271.854L211.948 277.62C211.672 279.505 212.677 281.25 214.448 281.964C214.964 282.167 215.49 282.271 216.005 282.271C217.271 282.271 218.479 281.667 219.271 280.563L221.005 278.146L221.01 278.141L221.927 276.87L222.703 275.781C222.771 276.026 222.823 276.276 222.865 276.531C222.865 276.547 222.87 276.563 222.87 276.578C222.917 276.891 222.948 277.208 222.948 277.531C222.948 277.875 222.911 278.203 222.865 278.531C222.865 278.536 222.859 278.536 222.859 278.542C222.75 279.266 222.526 279.953 222.198 280.583ZM235.693 267.438C235.385 267.005 235.062 266.589 234.714 266.182L236.172 264.151L235.693 267.438ZM220.146 252.516H229.135V256.313H220.146V252.516ZM127.443 258.448C127.49 258.542 127.583 258.781 127.401 259.031L123.234 264.833L122.698 265.583L122.156 266.339L117.88 272.292L117.323 273.068L116.76 273.854L112.708 279.5C112.323 280.042 111.828 280.302 111.339 280.396C111.021 280.453 110.703 280.438 110.417 280.37C110.292 280.344 110.172 280.307 110.062 280.266C109.891 280.198 109.719 280.099 109.557 279.979C109 279.573 108.547 278.87 108.693 277.88L109.292 273.771L109.594 271.682L109.687 271.047L109.828 270.083L109.849 269.948L109.969 269.135L111.026 261.875L111.161 260.958L111.297 260.047L111.453 258.953C111.521 258.49 111.927 258.141 112.396 258.141H126.943C127.255 258.141 127.396 258.354 127.443 258.448ZM111.193 293.193C108.755 293.193 106.448 292.635 104.385 291.641C106.5 290.094 108.224 288.104 109.453 285.844C110.016 285.964 110.599 286.026 111.193 286.026C115.891 286.026 119.708 282.214 119.708 277.531C119.708 276.266 119.422 275.068 118.922 273.984L123.417 267.724C125.589 270.411 126.896 273.823 126.896 277.531C126.896 286.167 119.849 293.193 111.193 293.193ZM98.6979 289.781C96.0156 291.911 92.6198 293.193 88.9323 293.193C80.276 293.193 73.2344 286.167 73.2344 277.531C73.2344 269.589 79.1979 263.01 86.8958 262.01L85.7812 269.651C82.6406 270.906 80.4219 273.964 80.4219 277.531C80.4219 282.214 84.2396 286.026 88.9323 286.026C91.2031 286.026 93.2552 285.13 94.7864 283.688C94.7916 283.682 94.7969 283.677 94.8021 283.672C95.0416 283.443 95.276 283.203 95.4896 282.948V282.943C95.7344 282.651 95.9531 282.339 96.1562 282.016C96.1562 282.01 96.1614 282.005 96.1666 281.995C96.9739 280.698 97.4479 279.172 97.4479 277.531C97.4479 276.266 97.1614 275.068 96.6614 273.984L101.161 267.724C102.417 269.281 103.385 271.083 103.974 273.052C104.104 273.474 104.214 273.906 104.307 274.349C104.453 275.057 104.552 275.786 104.599 276.531C104.62 276.859 104.635 277.198 104.635 277.531C104.635 277.87 104.62 278.203 104.599 278.536C104.552 279.276 104.453 280.005 104.307 280.714C104.214 281.156 104.104 281.589 103.974 282.016C103.224 284.51 101.87 286.75 100.073 288.557C100.073 288.557 100.068 288.563 100.062 288.563C99.8489 288.781 99.625 288.99 99.401 289.193C99.1719 289.396 98.9375 289.589 98.7031 289.776C98.6979 289.781 98.6979 289.781 98.6979 289.781ZM89.0364 260.047L89.1927 258.953C89.2604 258.49 89.6666 258.141 90.1354 258.141H104.682C104.995 258.141 105.135 258.354 105.182 258.448C105.229 258.542 105.323 258.781 105.141 259.031L102.927 262.109L102.911 262.135L101.531 264.063L101.521 264.073L100.974 264.833L100.437 265.583L99.8958 266.339L95.6198 272.292L95.2812 272.766L95.276 272.771L95.0625 273.068L94.5 273.854L93.901 274.693L93.8958 274.698L90.4479 279.5C89.6979 280.547 88.5573 280.568 87.8021 280.266C87.0521 279.964 86.2448 279.161 86.4323 277.88L87.4271 271.047L87.5729 270.083L87.7083 269.135L88.7708 261.875L88.901 260.958L89.0364 260.047ZM113.24 256.313H112.396C111.021 256.313 109.839 257.333 109.641 258.693L109.427 260.13C108.297 260.245 107.198 260.469 106.141 260.786L106.635 260.099C107.156 259.365 107.229 258.411 106.818 257.609C106.401 256.807 105.583 256.313 104.682 256.313H103.641V252.516H113.24V256.313ZM110.932 282.271C112.203 282.271 113.411 281.667 114.203 280.563L117.635 275.781C117.786 276.344 117.875 276.927 117.875 277.531C117.875 281.208 114.88 284.193 111.193 284.193C110.88 284.193 110.578 284.167 110.276 284.125C110.526 283.521 110.734 282.896 110.917 282.266C110.922 282.266 110.927 282.271 110.932 282.271ZM94.8646 280.583C94.8646 280.583 94.8646 280.583 94.8646 280.589C94.6666 280.964 94.4375 281.323 94.1719 281.656C94.1666 281.661 94.1614 281.667 94.1614 281.672C92.9375 283.208 91.0521 284.193 88.9323 284.193C85.25 284.193 82.2552 281.208 82.2552 277.531C82.2552 275.13 83.5416 273.026 85.4583 271.854L84.6146 277.62C84.3385 279.505 85.3437 281.25 87.1198 281.964C87.6302 282.167 88.1562 282.271 88.6719 282.271C89.9427 282.271 91.151 281.667 91.9427 280.563L93.6771 278.146L93.6823 278.141L94.5937 276.87L95.375 275.781C95.4375 276.026 95.4948 276.276 95.5312 276.531C95.5312 276.547 95.5364 276.563 95.5364 276.578C95.5833 276.891 95.6146 277.208 95.6146 277.531C95.6146 277.875 95.5833 278.208 95.5312 278.536V278.542C95.4166 279.266 95.1927 279.953 94.8646 280.583ZM108.359 267.438C108.057 267.005 107.729 266.589 107.38 266.182L108.839 264.151L108.359 267.438ZM92.8177 252.516H101.807V256.313H92.8177V252.516ZM90.0208 104.385L100.276 141.161L132.422 139.813L127.964 104.807L90.0208 104.385ZM101.656 139.271L92.4427 106.245L126.344 106.62L130.349 138.068L101.656 139.271ZM170.542 138.208L198.578 137.031L201.193 105.615L169.865 105.266L170.542 138.208ZM172.339 136.302L171.74 107.12L199.198 107.422L196.88 135.271L172.339 136.302ZM202.198 136.88L230.125 135.703L235.078 105.99L204.797 105.656L202.198 136.88ZM232.917 107.797L228.562 133.938L204.203 134.964L206.484 107.505L232.917 107.797ZM131.594 104.844L136.031 139.661L166.948 138.359L166.266 105.229L131.594 104.844ZM164.464 107.036L165.073 136.609L137.641 137.76L133.682 106.698L164.464 107.036Z" fill="#19055B"/>
</g>
</svg>
