<svg xmlns="http://www.w3.org/2000/svg" xmlns:xlink="http://www.w3.org/1999/xlink" width="1920" zoomAndPan="magnify" viewBox="0 0 1440 809.999993" height="1080" preserveAspectRatio="xMidYMid meet" version="1.0"><defs><clipPath id="8af32a80d8"><path d="M 638.25 294.375 L 826 294.375 L 826 415 L 638.25 415 Z M 638.25 294.375 " clip-rule="nonzero"/></clipPath><clipPath id="900aebfe86"><path d="M 605 301.125 L 815 301.125 L 815 515 L 605 515 Z M 605 301.125 " clip-rule="nonzero"/></clipPath><clipPath id="f1bb454a9a"><path d="M 604.5 301.125 L 835.5 301.125 L 835.5 515.625 L 604.5 515.625 Z M 604.5 301.125 " clip-rule="nonzero"/></clipPath></defs><rect x="-144" width="1728" fill="#ffffff" y="-80.999999" height="971.999992" fill-opacity="1"/><g clip-path="url(#8af32a80d8)"><path fill="#f1f2eb" d="M 692.679688 298.699219 L 640.101562 348.316406 C 638.804688 349.542969 638.324219 351.402344 638.863281 353.101562 L 644.128906 369.667969 C 644.476562 370.75 645.144531 371.703125 646.046875 372.398438 L 698.996094 413.042969 C 700.636719 414.304688 702.976562 414.070312 704.335938 412.511719 L 705.472656 411.207031 C 706.746094 409.75 708.851562 409.351562 710.570312 410.246094 L 718.34375 414.300781 C 719.5625 414.9375 720.96875 415.121094 722.316406 414.820312 L 792.503906 399.195312 C 794.222656 398.8125 795.296875 397.097656 794.894531 395.382812 L 794.054688 391.8125 C 793.609375 389.929688 794.210938 387.957031 795.625 386.640625 L 824.605469 359.644531 C 826.402344 357.972656 826.472656 355.144531 824.757812 353.386719 L 768.886719 296.007812 C 767.359375 294.441406 764.867188 294.355469 763.238281 295.820312 L 754.84375 303.371094 C 753.171875 304.875 750.691406 305.039062 748.832031 303.769531 C 745.839844 301.722656 739.589844 299.128906 731.988281 299.128906 C 723.503906 299.128906 717.058594 302.804688 713.1875 305.175781 C 711.351562 306.300781 709.027344 306.222656 707.265625 304.988281 L 697.765625 298.332031 C 696.195312 297.230469 694.070312 297.386719 692.679688 298.699219 Z M 692.679688 298.699219 " fill-opacity="1" fill-rule="nonzero"/></g><path fill="#0fb1ea" d="M 695.070312 302.226562 L 648.582031 365.589844 L 703.722656 407.292969 L 748.5625 342.683594 Z M 695.070312 302.226562 " fill-opacity="1" fill-rule="nonzero"/><path fill="#094459" d="M 695.070312 302.226562 L 643.628906 352.304688 L 648.582031 365.589844 Z M 695.070312 302.226562 " fill-opacity="1" fill-rule="nonzero"/><path fill="#094459" d="M 727.503906 340.777344 C 727.210938 340.777344 726.917969 340.683594 726.667969 340.492188 C 726.066406 340.03125 725.949219 339.167969 726.414062 338.566406 C 726.53125 338.410156 738.289062 322.9375 736.929688 312.910156 C 736.609375 310.539062 735.589844 308.734375 733.808594 307.386719 C 732.03125 306.039062 730.007812 305.554688 727.648438 305.890625 C 717.632812 307.324219 705.992188 322.867188 705.875 323.023438 C 705.421875 323.636719 704.5625 323.765625 703.949219 323.308594 C 703.339844 322.855469 703.210938 321.996094 703.664062 321.386719 C 704.167969 320.707031 716.117188 304.765625 727.257812 303.167969 C 730.34375 302.722656 733.109375 303.40625 735.472656 305.191406 C 737.832031 306.976562 739.242188 309.453125 739.660156 312.542969 C 741.167969 323.707031 729.113281 339.570312 728.597656 340.238281 C 728.328125 340.589844 727.917969 340.777344 727.503906 340.777344 Z M 727.503906 340.777344 " fill-opacity="1" fill-rule="nonzero"/><path fill="#f7ce26" d="M 701.914062 332.488281 L 720.964844 408.722656 L 788.296875 392.984375 L 767.234375 317.222656 Z M 701.914062 332.488281 " fill-opacity="1" fill-rule="nonzero"/><path fill="#094459" d="M 701.914062 332.488281 L 707.132812 404.078125 L 720.964844 408.722656 Z M 701.914062 332.488281 " fill-opacity="1" fill-rule="nonzero"/><path fill="#094459" d="M 723.488281 339.175781 C 722.867188 339.175781 722.304688 338.757812 722.152344 338.128906 C 721.953125 337.308594 717.320312 317.929688 723.210938 308.347656 C 724.84375 305.691406 727.136719 304 730.019531 303.328125 C 732.898438 302.652344 735.703125 303.152344 738.351562 304.808594 C 747.90625 310.78125 752.40625 330.1875 752.59375 331.007812 C 752.761719 331.75 752.296875 332.484375 751.554688 332.652344 C 750.808594 332.828125 750.074219 332.359375 749.910156 331.617188 C 749.867188 331.425781 745.472656 312.5 736.890625 307.136719 C 734.859375 305.867188 732.816406 305.5 730.644531 306.007812 C 728.472656 306.515625 726.808594 307.75 725.554688 309.785156 C 720.261719 318.402344 724.78125 337.285156 724.828125 337.476562 C 725.007812 338.214844 724.554688 338.957031 723.816406 339.136719 C 723.707031 339.164062 723.59375 339.175781 723.488281 339.175781 Z M 723.488281 339.175781 " fill-opacity="1" fill-rule="nonzero"/><path fill="#f07423" d="M 713.839844 343.847656 L 766.191406 402.46875 L 818.464844 357.222656 L 764.550781 299.957031 Z M 713.839844 343.847656 " fill-opacity="1" fill-rule="nonzero"/><path fill="#094459" d="M 713.839844 343.847656 L 751.789062 404.789062 L 766.191406 402.46875 Z M 713.839844 343.847656 " fill-opacity="1" fill-rule="nonzero"/><path fill="#094459" d="M 735.410156 339.894531 C 735.03125 339.894531 734.652344 339.738281 734.378906 339.429688 C 733.820312 338.796875 720.699219 323.800781 721.453125 312.574219 C 721.660156 309.464844 722.902344 306.90625 725.140625 304.96875 C 727.378906 303.03125 730.09375 302.167969 733.207031 302.402344 C 744.445312 303.246094 757.460938 318.328125 758.007812 318.972656 C 758.503906 319.546875 758.433594 320.417969 757.855469 320.910156 C 757.28125 321.402344 756.410156 321.335938 755.917969 320.757812 C 755.789062 320.609375 743.09375 305.902344 732.996094 305.144531 C 730.625 304.964844 728.628906 305.585938 726.941406 307.046875 C 725.253906 308.507812 724.359375 310.375 724.199219 312.757812 C 723.519531 322.851562 736.3125 337.460938 736.441406 337.609375 C 736.945312 338.175781 736.890625 339.046875 736.320312 339.550781 C 736.058594 339.78125 735.734375 339.894531 735.410156 339.894531 Z M 735.410156 339.894531 " fill-opacity="1" fill-rule="nonzero"/><path fill="#ec8f3c" d="M 684.515625 494.460938 L 684.164062 494.050781 L 685.570312 492.089844 L 686.8125 492.589844 L 686.203125 496.746094 L 685.210938 495.351562 C 684.992188 495.042969 684.757812 494.742188 684.515625 494.460938 Z M 780.707031 495.351562 L 781.703125 496.746094 L 782.3125 492.589844 L 781.070312 492.089844 L 779.664062 494.050781 L 780.011719 494.460938 C 780.253906 494.742188 780.488281 495.042969 780.707031 495.351562 Z M 635.390625 304.335938 C 635.054688 304.25 634.769531 304.191406 634.476562 304.152344 L 616.1875 302.117188 L 617.980469 303.585938 C 619.796875 305.078125 620.839844 307.273438 620.839844 309.609375 C 620.839844 311.578125 620.089844 313.464844 618.730469 314.917969 L 618.421875 315.25 L 619.457031 317.621094 L 619.890625 317.636719 C 622.132812 317.714844 633.328125 318.09375 633.582031 318.097656 L 633.597656 318.097656 C 633.628906 318.097656 633.660156 318.097656 633.691406 318.09375 C 633.949219 318.089844 634.214844 318.070312 634.496094 318.035156 C 634.746094 318.003906 635.007812 317.953125 635.265625 317.890625 C 636.757812 317.523438 638.109375 316.660156 639.070312 315.460938 C 639.246094 315.238281 639.414062 314.996094 639.582031 314.726562 C 639.769531 314.417969 639.917969 314.136719 640.035156 313.859375 C 640.414062 312.980469 640.609375 312.050781 640.609375 311.09375 C 640.609375 307.929688 638.460938 305.152344 635.390625 304.335938 Z M 792.53125 494.03125 L 788.398438 499.789062 L 788.566406 500.152344 C 788.914062 500.910156 789.09375 501.707031 789.09375 502.523438 C 789.09375 505.65625 786.535156 508.207031 783.394531 508.207031 C 783.003906 508.207031 782.613281 508.167969 782.226562 508.085938 L 781.726562 507.984375 L 781.480469 508.429688 C 780.601562 510.046875 779.359375 511.472656 777.882812 512.554688 L 776.960938 513.226562 L 777.988281 513.722656 C 779.683594 514.542969 781.503906 514.957031 783.394531 514.957031 C 790.265625 514.957031 795.855469 509.378906 795.855469 502.523438 C 795.855469 499.703125 794.878906 496.9375 793.097656 494.734375 Z M 697.03125 494.03125 L 692.898438 499.789062 L 693.066406 500.152344 C 693.417969 500.90625 693.59375 501.707031 693.59375 502.523438 C 693.59375 505.65625 691.039062 508.207031 687.894531 508.207031 C 687.507812 508.207031 687.113281 508.167969 686.730469 508.085938 L 686.226562 507.980469 L 685.984375 508.429688 C 685.105469 510.046875 683.859375 511.472656 682.382812 512.554688 L 681.460938 513.226562 L 682.492188 513.722656 C 684.1875 514.542969 686.003906 514.957031 687.894531 514.957031 C 694.765625 514.957031 700.359375 509.378906 700.359375 502.523438 C 700.359375 499.703125 699.378906 496.9375 697.601562 494.734375 Z M 832.433594 343.808594 C 831.585938 343.179688 830.582031 342.8125 829.527344 342.75 L 811.292969 341.6875 L 812.75 342.996094 C 813.976562 344.101562 814.625 345.671875 814.527344 347.304688 C 814.433594 348.902344 813.636719 350.363281 812.339844 351.320312 L 810.8125 352.449219 L 828.894531 353.5 C 828.988281 353.507812 829.078125 353.507812 829.171875 353.507812 C 829.324219 353.507812 829.476562 353.503906 829.625 353.492188 C 829.921875 353.46875 830.203125 353.425781 830.464844 353.363281 C 830.75 353.296875 831.046875 353.195312 831.335938 353.070312 C 833.230469 352.257812 834.480469 350.480469 834.601562 348.441406 C 834.707031 346.632812 833.898438 344.902344 832.433594 343.808594 Z M 832.433594 343.808594 " fill-opacity="1" fill-rule="nonzero"/><path fill="#145da0" d="M 673.425781 483.074219 L 681.542969 483.074219 L 681.542969 487.296875 L 673.425781 487.296875 Z M 676.695312 501.03125 L 676.3125 499.640625 L 672.898438 504.398438 C 672.445312 505.027344 671.753906 505.390625 671.003906 505.390625 C 670.695312 505.390625 670.390625 505.328125 670.09375 505.210938 C 669.066406 504.796875 668.484375 503.785156 668.640625 502.6875 L 669.484375 496.914062 L 668.234375 497.679688 C 666.523438 498.726562 665.503906 500.539062 665.503906 502.523438 C 665.503906 505.65625 668.058594 508.207031 671.199219 508.207031 C 672.941406 508.207031 674.566406 507.421875 675.667969 506.042969 C 675.886719 505.765625 676.082031 505.46875 676.246094 505.160156 L 676.273438 505.113281 L 676.285156 505.078125 C 676.550781 504.554688 676.730469 503.992188 676.824219 503.402344 L 676.835938 503.332031 C 676.878906 503.035156 676.898438 502.777344 676.898438 502.523438 C 676.898438 502.269531 676.878906 502.011719 676.828125 501.667969 C 676.796875 501.449219 676.75 501.234375 676.695312 501.03125 Z M 693.007812 499.640625 L 689.589844 504.398438 C 689.140625 505.027344 688.449219 505.390625 687.734375 505.390625 L 687.179688 505.355469 L 687.023438 505.886719 C 686.886719 506.367188 686.738281 506.800781 686.570312 507.207031 L 686.234375 508.027344 L 687.113281 508.148438 C 687.40625 508.1875 687.65625 508.207031 687.894531 508.207031 C 691.039062 508.207031 693.59375 505.65625 693.59375 502.523438 C 693.59375 502.03125 693.523438 501.527344 693.390625 501.03125 Z M 671.851562 474.742188 L 678.453125 474.742188 L 677.574219 473.632812 C 677.230469 473.199219 676.925781 472.75 676.664062 472.300781 C 674.714844 468.925781 674.714844 464.898438 676.671875 461.527344 L 688.09375 441.941406 L 681.84375 441.941406 L 671.996094 458.832031 C 669.207031 463.644531 669.082031 469.453125 671.660156 474.375 Z M 638.640625 315.941406 C 637.769531 316.84375 636.675781 317.5 635.46875 317.835938 L 634.710938 318.046875 L 639.070312 328.058594 L 644.957031 328.058594 L 639.355469 315.203125 Z M 788.507812 499.636719 L 785.089844 504.398438 C 784.640625 505.019531 783.960938 505.382812 783.222656 505.390625 L 782.664062 505.390625 L 782.523438 505.886719 C 782.386719 506.367188 782.238281 506.796875 782.070312 507.207031 L 781.734375 508.027344 L 782.613281 508.148438 C 782.90625 508.1875 783.152344 508.207031 783.394531 508.207031 C 786.535156 508.207031 789.09375 505.65625 789.09375 502.523438 C 789.09375 502.03125 789.023438 501.53125 788.886719 501.03125 Z M 825.90625 372.414062 L 825.085938 371.566406 C 825.425781 371.949219 825.632812 372.453125 825.632812 373 C 825.632812 373.886719 825.097656 374.652344 824.335938 374.992188 L 825.425781 374.574219 L 820.636719 396.046875 L 819.832031 395.167969 C 820.136719 395.542969 820.320312 396.019531 820.320312 396.539062 C 820.320312 397.425781 819.789062 398.1875 819.027344 398.527344 L 820.191406 398.046875 L 815.574219 418.753906 L 815.542969 418.851562 C 815.527344 418.914062 815.503906 418.984375 815.476562 419.054688 C 815.445312 419.144531 815.40625 419.234375 815.363281 419.320312 C 815.328125 419.394531 815.300781 419.445312 815.273438 419.496094 C 815.21875 419.585938 815.160156 419.671875 815.097656 419.757812 L 815.0625 419.800781 C 815.035156 419.839844 815.011719 419.871094 814.996094 419.890625 C 814.914062 419.984375 814.832031 420.0625 814.746094 420.140625 L 814.664062 420.21875 L 814.640625 420.238281 C 814.511719 420.339844 814.378906 420.429688 814.253906 420.5 L 814.222656 420.515625 L 814.144531 420.550781 C 814.027344 420.609375 813.910156 420.660156 813.785156 420.699219 L 813.738281 420.714844 L 813.621094 420.742188 C 813.515625 420.769531 813.402344 420.796875 813.289062 420.808594 L 813.246094 420.820312 L 813.171875 420.828125 L 794.421875 422.640625 L 795.175781 421.425781 C 795.207031 421.375 795.234375 421.320312 795.257812 421.269531 C 795.300781 421.183594 795.339844 421.09375 795.375 420.996094 C 795.398438 420.933594 795.421875 420.859375 795.441406 420.785156 C 795.460938 420.726562 795.46875 420.703125 795.472656 420.679688 L 796.28125 417.050781 L 810.734375 415.65625 L 814.511719 398.71875 L 800.371094 398.71875 L 801.34375 394.363281 L 815.484375 394.363281 L 819.761719 375.179688 L 805.617188 375.179688 L 806.589844 370.824219 L 820.730469 370.824219 L 824.648438 353.253906 L 828.898438 353.5 C 829.003906 353.507812 829.113281 353.511719 829.21875 353.511719 C 829.214844 353.511719 829.238281 353.507812 829.265625 353.507812 L 830.121094 353.507812 Z M 823.851562 370.859375 C 823.722656 370.835938 823.589844 370.824219 823.457031 370.824219 C 823.589844 370.824219 823.722656 370.835938 823.851562 370.859375 Z M 802.042969 477.6875 L 794.972656 477.6875 L 795.785156 478.785156 C 796.132812 479.253906 796.316406 479.804688 796.316406 480.382812 C 796.316406 480.957031 796.132812 481.507812 795.785156 481.976562 L 794.972656 483.074219 L 802.042969 483.074219 C 803.53125 483.074219 804.742188 481.867188 804.742188 480.382812 C 804.742188 478.898438 803.53125 477.6875 802.042969 477.6875 Z M 772.328125 501.671875 C 772.292969 501.449219 772.246094 501.234375 772.191406 501.03125 L 771.8125 499.640625 L 768.394531 504.398438 C 767.941406 505.027344 767.253906 505.390625 766.5 505.390625 C 766.195312 505.390625 765.890625 505.328125 765.59375 505.210938 C 764.566406 504.796875 763.980469 503.785156 764.140625 502.6875 L 764.984375 496.914062 L 763.730469 497.679688 C 762.023438 498.726562 761 500.539062 761 502.523438 C 761 505.65625 763.558594 508.207031 766.699219 508.207031 C 768.441406 508.207031 770.066406 507.421875 771.136719 506.082031 L 771.167969 506.042969 C 771.359375 505.800781 771.53125 505.546875 771.679688 505.277344 L 771.835938 505.160156 L 771.835938 504.972656 C 772.074219 504.480469 772.238281 503.953125 772.324219 503.402344 L 772.328125 503.375 C 772.375 503.058594 772.398438 502.789062 772.398438 502.523438 C 772.398438 502.277344 772.378906 502.015625 772.335938 501.730469 Z M 768.921875 487.296875 L 777.039062 487.296875 L 777.039062 483.074219 L 768.921875 483.074219 Z M 768.921875 487.296875 " fill-opacity="1" fill-rule="nonzero"/><g clip-path="url(#900aebfe86)"><path fill="#f6bd3b" d="M 619.167969 314.417969 L 618.453125 315.320312 L 615.496094 308.535156 C 615.238281 307.9375 614.765625 307.457031 614.167969 307.175781 C 613.996094 307.097656 613.8125 307.035156 613.628906 306.992188 C 613.449219 306.949219 613.265625 306.925781 613.082031 306.921875 L 613.011719 306.921875 C 612.640625 306.921875 612.28125 306.996094 611.945312 307.140625 C 611.285156 307.425781 610.773438 307.953125 610.511719 308.621094 C 610.246094 309.292969 610.257812 310.023438 610.546875 310.683594 L 613.503906 317.472656 L 612.355469 317.375 C 608.34375 317.035156 605.203125 313.621094 605.203125 309.609375 C 605.203125 305.308594 608.710938 301.8125 613.023438 301.8125 C 613.101562 301.8125 613.175781 301.816406 613.253906 301.820312 L 613.351562 301.828125 C 613.605469 301.835938 613.859375 301.859375 614.101562 301.894531 C 614.355469 301.929688 614.609375 301.976562 614.851562 302.035156 C 618.375 302.882812 620.839844 305.996094 620.839844 309.609375 C 620.839844 311.363281 620.261719 313.027344 619.167969 314.417969 Z M 683.402344 499.996094 C 683.335938 499.664062 683.246094 499.316406 683.140625 498.964844 C 682.675781 497.421875 681.925781 495.996094 680.90625 494.734375 L 680.335938 494.03125 L 676.203125 499.789062 L 676.371094 500.152344 C 676.722656 500.90625 676.898438 501.707031 676.898438 502.523438 C 676.898438 503.574219 676.601562 504.605469 676.03125 505.523438 C 675.886719 505.757812 675.746094 505.953125 675.609375 506.121094 L 675.585938 506.148438 C 675.460938 506.300781 675.308594 506.457031 675.113281 506.644531 C 674.046875 507.652344 672.65625 508.207031 671.199219 508.207031 C 668.058594 508.207031 665.503906 505.65625 665.503906 502.523438 C 665.503906 500.191406 666.910156 498.121094 669.089844 497.25 L 669.457031 497.101562 L 670.484375 490.082031 L 669.582031 490.199219 C 663.398438 491.003906 658.738281 496.304688 658.738281 502.523438 C 658.738281 509.378906 664.328125 514.957031 671.199219 514.957031 C 674.042969 514.957031 676.722656 514.019531 678.949219 512.25 L 678.957031 512.246094 C 679.121094 512.117188 679.28125 511.980469 679.4375 511.84375 L 679.738281 511.695312 L 679.738281 511.570312 C 679.832031 511.480469 679.925781 511.390625 680.019531 511.296875 L 680.042969 511.273438 C 681.484375 509.824219 682.554688 508.03125 683.140625 506.082031 C 683.246094 505.734375 683.335938 505.386719 683.402344 505.050781 C 683.519531 504.496094 683.597656 503.914062 683.636719 503.320312 C 683.652344 503.054688 683.664062 502.792969 683.664062 502.523438 C 683.664062 502.257812 683.652344 501.992188 683.636719 501.726562 C 683.597656 501.136719 683.519531 500.554688 683.402344 499.996094 Z M 778.902344 499.996094 C 778.832031 499.664062 778.746094 499.316406 778.640625 498.964844 C 778.175781 497.421875 777.421875 495.996094 776.402344 494.734375 L 775.835938 494.03125 L 771.703125 499.789062 L 771.871094 500.152344 C 772.21875 500.910156 772.398438 501.707031 772.398438 502.523438 C 772.398438 503.574219 772.101562 504.605469 771.53125 505.523438 C 771.394531 505.738281 771.265625 505.925781 771.136719 506.085938 L 771.109375 506.105469 L 771.066406 506.171875 C 770.941406 506.316406 770.796875 506.46875 770.613281 506.644531 C 769.546875 507.652344 768.15625 508.207031 766.699219 508.207031 C 763.558594 508.207031 761 505.65625 761 502.523438 C 761 500.191406 762.410156 498.121094 764.589844 497.25 L 764.957031 497.101562 L 765.980469 490.082031 L 765.082031 490.199219 C 758.898438 491.003906 754.238281 496.304688 754.238281 502.523438 C 754.238281 509.378906 759.828125 514.957031 766.699219 514.957031 C 769.542969 514.957031 772.222656 514.019531 774.449219 512.25 L 774.453125 512.246094 C 774.644531 512.09375 774.828125 511.941406 775.007812 511.78125 C 775.183594 511.625 775.355469 511.464844 775.519531 511.296875 L 775.542969 511.273438 C 776.984375 509.824219 778.054688 508.03125 778.640625 506.082031 C 778.746094 505.734375 778.832031 505.386719 778.902344 505.050781 C 779.019531 504.496094 779.097656 503.914062 779.132812 503.320312 C 779.152344 503.054688 779.164062 502.792969 779.164062 502.523438 C 779.164062 502.257812 779.152344 501.992188 779.132812 501.726562 C 779.097656 501.136719 779.019531 500.554688 778.902344 499.996094 Z M 809.453125 341.617188 L 624.492188 330.835938 C 624.382812 330.828125 624.277344 330.824219 624.167969 330.824219 C 622.851562 330.824219 621.582031 331.308594 620.589844 332.1875 C 620.554688 332.21875 620.523438 332.25 620.464844 332.308594 C 620.238281 332.523438 620.046875 332.730469 619.882812 332.949219 C 619.691406 333.195312 619.523438 333.46875 619.375 333.757812 C 619.027344 334.429688 618.832031 335.148438 618.789062 335.894531 C 618.640625 338.390625 620.285156 340.699219 622.695312 341.382812 C 622.992188 341.46875 623.304688 341.527344 623.632812 341.5625 L 623.691406 341.566406 C 623.75 341.574219 623.804688 341.582031 623.863281 341.585938 L 808.824219 352.367188 C 808.917969 352.375 809.015625 352.375 809.113281 352.375 C 809.234375 352.375 809.355469 352.371094 809.476562 352.363281 C 809.761719 352.347656 810.046875 352.308594 810.328125 352.246094 C 810.621094 352.179688 810.914062 352.085938 811.199219 351.96875 C 811.519531 351.835938 811.828125 351.667969 812.117188 351.476562 C 813.527344 350.542969 814.429688 348.984375 814.527344 347.304688 C 814.703125 344.34375 812.425781 341.789062 809.453125 341.617188 Z M 809.453125 341.617188 " fill-opacity="1" fill-rule="nonzero"/></g><path fill="#7bc9c0" d="M 624.164062 330.832031 C 622.925781 330.832031 621.761719 331.246094 620.792969 332.023438 L 620.089844 332.589844 L 610.546875 310.683594 C 610.257812 310.023438 610.246094 309.292969 610.511719 308.621094 C 610.773438 307.953125 611.285156 307.425781 611.945312 307.140625 C 612.285156 306.992188 612.648438 306.917969 613.019531 306.917969 C 613.320312 306.917969 613.628906 306.972656 613.933594 307.082031 C 614.269531 307.203125 614.570312 307.378906 614.828125 307.609375 C 615.117188 307.871094 615.34375 308.183594 615.496094 308.535156 L 625.210938 330.832031 Z M 683.011719 487.296875 L 672.101562 487.296875 C 671.410156 487.296875 670.816406 487.808594 670.714844 488.492188 L 668.640625 502.6875 C 668.457031 503.953125 669.238281 504.867188 670.09375 505.210938 C 670.382812 505.324219 670.695312 505.386719 671.007812 505.386719 C 671.769531 505.386719 672.4375 505.035156 672.898438 504.398438 L 683.914062 489.046875 C 684.160156 488.703125 684.195312 488.273438 684 487.898438 C 683.804688 487.519531 683.4375 487.296875 683.011719 487.296875 Z M 699.707031 487.296875 L 688.796875 487.296875 C 688.105469 487.296875 687.507812 487.808594 687.410156 488.492188 L 685.335938 502.6875 C 685.207031 503.578125 685.542969 504.386719 686.261719 504.914062 C 686.433594 505.039062 686.609375 505.136719 686.789062 505.210938 C 686.902344 505.253906 687.023438 505.292969 687.160156 505.324219 C 687.339844 505.363281 687.519531 505.382812 687.703125 505.382812 C 687.84375 505.382812 687.988281 505.371094 688.128906 505.34375 C 688.71875 505.234375 689.222656 504.910156 689.589844 504.398438 L 700.609375 489.046875 C 700.855469 488.703125 700.886719 488.273438 700.695312 487.898438 C 700.5 487.519531 700.132812 487.296875 699.707031 487.296875 Z M 793.867188 422.570312 L 793.5625 421.953125 L 793.816406 422.59375 C 793.773438 422.613281 793.726562 422.632812 793.683594 422.648438 L 793.515625 422.691406 C 793.40625 422.71875 793.292969 422.742188 793.183594 422.757812 L 793.140625 422.765625 L 793.066406 422.777344 L 745.125 427.414062 L 745.179688 427.417969 C 746.507812 427.507812 747.5625 428.523438 747.691406 429.832031 C 747.761719 430.546875 747.550781 431.246094 747.09375 431.804688 C 746.632812 432.359375 745.988281 432.703125 745.269531 432.773438 L 668.933594 440.257812 L 656.597656 461.527344 C 654.640625 464.898438 654.640625 468.925781 656.589844 472.300781 C 658.542969 475.675781 662.039062 477.6875 665.945312 477.6875 L 793.621094 477.6875 C 795.109375 477.6875 796.316406 478.898438 796.316406 480.382812 C 796.316406 481.867188 795.109375 483.074219 793.621094 483.074219 L 665.945312 483.074219 C 660.085938 483.074219 654.839844 480.050781 651.914062 474.988281 C 648.988281 469.929688 648.992188 463.886719 651.925781 458.832031 L 664.988281 436.3125 L 665.015625 436.277344 C 665.035156 436.253906 665.054688 436.230469 665.085938 436.183594 C 665.140625 436.097656 665.1875 436.03125 665.238281 435.96875 C 665.285156 435.917969 665.328125 435.875 665.371094 435.835938 L 665.453125 435.757812 C 665.511719 435.699219 665.5625 435.652344 665.617188 435.609375 C 665.671875 435.5625 665.726562 435.527344 665.78125 435.492188 L 665.867188 435.4375 C 665.945312 435.386719 666 435.351562 666.058594 435.324219 C 666.117188 435.292969 666.171875 435.269531 666.230469 435.246094 L 666.351562 435.199219 C 666.425781 435.171875 666.484375 435.148438 666.546875 435.128906 C 666.613281 435.109375 666.683594 435.097656 666.792969 435.078125 L 666.839844 435.070312 C 666.863281 435.066406 666.886719 435.0625 666.921875 435.050781 L 666.972656 435.039062 L 718.222656 430.015625 L 666.742188 434.992188 C 666.679688 435 666.625 435 666.566406 435.003906 L 666.449219 435.007812 C 666.320312 435.003906 666.179688 434.988281 666.023438 434.960938 L 665.882812 434.933594 C 665.78125 434.910156 665.683594 434.882812 665.585938 434.847656 C 665.53125 434.828125 665.484375 434.8125 665.441406 434.792969 C 665.335938 434.746094 665.234375 434.695312 665.140625 434.640625 L 665.074219 434.609375 L 665.046875 434.589844 C 664.921875 434.511719 664.800781 434.421875 664.691406 434.328125 L 664.667969 434.304688 L 664.644531 434.277344 C 664.539062 434.175781 664.457031 434.089844 664.382812 433.996094 C 664.367188 433.976562 664.34375 433.949219 664.308594 433.898438 C 664.234375 433.792969 664.183594 433.710938 664.136719 433.628906 C 664.105469 433.574219 664.078125 433.523438 664.050781 433.46875 L 664.03125 433.4375 L 664.007812 433.386719 L 624.015625 341.59375 L 630.054688 341.945312 L 656.972656 403.734375 L 655.597656 400.574219 L 676.042969 399.714844 L 668.679688 373.3125 L 643.601562 373.035156 L 641.820312 368.953125 L 667.542969 369.234375 L 660.429688 343.714844 L 664.726562 343.96875 L 671.785156 369.28125 L 699.347656 369.585938 L 696.316406 345.808594 L 700.457031 346.050781 L 703.460938 369.632812 L 728.441406 369.910156 L 727.980469 347.65625 L 732.0625 347.894531 L 732.515625 369.953125 L 754.984375 370.203125 L 756.722656 349.332031 L 760.789062 349.566406 L 759.070312 370.246094 L 780.675781 370.484375 L 783.9375 350.917969 L 788.027344 351.15625 L 784.796875 370.53125 L 801.085938 370.710938 L 805.222656 352.15625 L 808.824219 352.367188 C 808.929688 352.375 809.035156 352.378906 809.144531 352.378906 C 809.179688 352.378906 809.214844 352.375 809.25 352.371094 L 809.355469 352.367188 C 809.5 352.359375 809.636719 352.351562 809.773438 352.335938 L 810.734375 352.222656 L 810.515625 353.226562 L 795.46875 420.707031 L 795.4375 420.796875 C 795.417969 420.863281 795.394531 420.933594 795.375 421 C 795.335938 421.097656 795.300781 421.183594 795.257812 421.265625 C 795.222656 421.339844 795.195312 421.390625 795.167969 421.445312 C 795.113281 421.535156 795.054688 421.621094 794.992188 421.703125 L 794.960938 421.746094 C 794.929688 421.789062 794.910156 421.816406 794.886719 421.839844 C 794.8125 421.929688 794.726562 422.007812 794.636719 422.089844 L 794.5625 422.164062 L 794.535156 422.183594 C 794.410156 422.289062 794.273438 422.378906 794.148438 422.445312 L 794.113281 422.464844 L 794.03125 422.5 C 793.980469 422.527344 793.925781 422.550781 793.867188 422.570312 Z M 800.179688 374.765625 L 784.121094 374.589844 L 780.667969 395.316406 L 795.742188 394.683594 Z M 794.824219 398.789062 L 779.984375 399.414062 L 776.730469 418.945312 L 773.351562 419.273438 L 790.628906 417.601562 Z M 772.53125 419.351562 L 775.824219 399.589844 L 756.558594 400.398438 L 754.839844 421.0625 L 750.71875 421.460938 L 752.457031 400.570312 L 733.164062 401.382812 L 733.613281 423.117188 Z M 706.5 425.738281 L 703.554688 402.625 L 681.34375 403.558594 L 688.027344 427.523438 Z M 672.925781 373.359375 L 680.222656 399.539062 L 703.039062 398.578125 L 699.863281 373.660156 Z M 703.980469 373.703125 L 707.125 398.40625 L 729.007812 397.488281 L 728.523438 373.976562 Z M 706.890625 425.699219 L 729.542969 423.511719 L 729.089844 401.554688 L 707.640625 402.453125 L 710.558594 425.347656 Z M 732.601562 374.019531 L 733.082031 397.316406 L 752.796875 396.488281 L 754.644531 374.261719 Z M 758.730469 374.308594 L 756.898438 396.316406 L 776.507812 395.492188 L 780 374.542969 Z M 657.339844 404.570312 L 668.175781 429.445312 L 685.394531 427.78125 L 683.910156 427.921875 L 677.164062 403.734375 Z M 795.207031 487.296875 L 784.296875 487.296875 C 783.605469 487.296875 783.007812 487.808594 782.910156 488.492188 L 780.835938 502.6875 C 780.707031 503.578125 781.042969 504.386719 781.757812 504.914062 C 781.929688 505.039062 782.109375 505.136719 782.289062 505.210938 C 782.398438 505.253906 782.523438 505.292969 782.660156 505.324219 C 782.839844 505.363281 783.019531 505.382812 783.199219 505.382812 C 783.34375 505.382812 783.488281 505.371094 783.628906 505.34375 C 784.21875 505.234375 784.722656 504.910156 785.089844 504.398438 L 796.109375 489.046875 C 796.355469 488.703125 796.386719 488.273438 796.195312 487.898438 C 796 487.519531 795.628906 487.296875 795.207031 487.296875 Z M 778.511719 487.296875 L 767.601562 487.296875 C 766.910156 487.296875 766.3125 487.808594 766.214844 488.492188 L 764.140625 502.6875 C 763.957031 503.953125 764.738281 504.867188 765.59375 505.210938 C 765.882812 505.324219 766.195312 505.386719 766.507812 505.386719 C 767.265625 505.386719 767.9375 505.035156 768.394531 504.398438 L 779.414062 489.046875 C 779.660156 488.703125 779.691406 488.273438 779.5 487.898438 C 779.304688 487.519531 778.933594 487.296875 778.511719 487.296875 Z M 778.511719 487.296875 " fill-opacity="1" fill-rule="nonzero"/><g clip-path="url(#f1bb454a9a)"><path fill="#19055b" d="M 829.566406 342.066406 L 647.179688 331.433594 L 645.589844 327.785156 L 640.101562 315.1875 C 640.855469 314 641.296875 312.601562 641.296875 311.09375 C 641.296875 307.238281 638.402344 303.960938 634.566406 303.472656 C 634.5625 303.472656 634.5625 303.472656 634.558594 303.472656 L 614.125 301.195312 C 614.105469 301.195312 614.082031 301.195312 614.0625 301.195312 C 613.722656 301.152344 613.375 301.125 613.023438 301.125 C 608.332031 301.125 604.515625 304.929688 604.515625 309.609375 C 604.515625 314.289062 608.332031 318.09375 613.023438 318.09375 L 619.320312 332.546875 C 618.597656 333.496094 618.171875 334.636719 618.101562 335.855469 C 617.910156 339.105469 620.332031 341.90625 623.546875 342.238281 L 663.375 433.660156 C 663.390625 433.699219 663.410156 433.734375 663.429688 433.765625 C 663.460938 433.832031 663.496094 433.898438 663.535156 433.960938 C 663.59375 434.070312 663.660156 434.175781 663.746094 434.292969 C 663.78125 434.339844 663.8125 434.386719 663.847656 434.429688 C 663.941406 434.542969 664.039062 434.652344 664.152344 434.761719 C 664.179688 434.785156 664.203125 434.8125 664.230469 434.835938 C 664.367188 434.957031 664.519531 435.070312 664.679688 435.171875 C 664.710938 435.191406 664.746094 435.210938 664.792969 435.234375 C 664.839844 435.261719 664.886719 435.28125 664.933594 435.304688 L 664.910156 435.324219 C 664.84375 435.386719 664.78125 435.449219 664.71875 435.523438 C 664.640625 435.613281 664.574219 435.707031 664.511719 435.804688 L 665.066406 436.210938 L 664.476562 435.851562 C 664.433594 435.90625 664.394531 435.960938 664.359375 436.019531 L 651.328125 458.488281 C 648.269531 463.757812 648.265625 470.054688 651.316406 475.332031 C 654.371094 480.609375 659.835938 483.761719 665.945312 483.761719 L 672.738281 483.761719 L 672.738281 486.609375 L 672.101562 486.609375 C 671.070312 486.609375 670.183594 487.375 670.035156 488.394531 L 669.875 489.472656 C 663.246094 490.136719 658.050781 495.738281 658.050781 502.523438 C 658.050781 509.757812 663.949219 515.640625 671.199219 515.640625 C 674.367188 515.640625 677.277344 514.519531 679.546875 512.652344 C 679.59375 512.6875 679.636719 512.722656 679.683594 512.757812 C 679.707031 512.777344 679.734375 512.800781 679.761719 512.820312 C 679.941406 512.960938 680.125 513.097656 680.316406 513.234375 C 680.355469 513.261719 680.398438 513.292969 680.441406 513.320312 C 680.65625 513.472656 680.878906 513.617188 681.105469 513.753906 C 681.109375 513.753906 681.109375 513.757812 681.113281 513.757812 C 683.09375 514.953125 685.417969 515.640625 687.894531 515.640625 C 695.148438 515.640625 701.046875 509.757812 701.046875 502.523438 C 701.046875 499.277344 699.855469 496.308594 697.890625 494.015625 L 701.167969 489.449219 C 701.5625 488.898438 701.617188 488.183594 701.308594 487.582031 C 700.996094 486.980469 700.382812 486.609375 699.707031 486.609375 L 698.925781 486.609375 L 698.925781 483.761719 L 768.234375 483.761719 L 768.234375 486.609375 L 767.601562 486.609375 C 766.570312 486.609375 765.679688 487.375 765.53125 488.394531 L 765.375 489.472656 C 758.742188 490.136719 753.550781 495.738281 753.550781 502.523438 C 753.550781 509.757812 759.449219 515.640625 766.699219 515.640625 C 769.867188 515.640625 772.773438 514.519531 775.046875 512.652344 C 775.089844 512.6875 775.136719 512.722656 775.179688 512.757812 C 775.207031 512.777344 775.234375 512.800781 775.261719 512.820312 C 775.441406 512.960938 775.625 513.097656 775.8125 513.234375 C 775.855469 513.261719 775.894531 513.292969 775.9375 513.320312 C 776.15625 513.472656 776.378906 513.617188 776.605469 513.753906 C 776.605469 513.753906 776.609375 513.757812 776.609375 513.757812 C 776.609375 513.757812 776.613281 513.757812 776.613281 513.757812 C 778.59375 514.953125 780.914062 515.640625 783.394531 515.640625 C 790.644531 515.640625 796.546875 509.757812 796.546875 502.523438 C 796.546875 499.277344 795.355469 496.308594 793.390625 494.015625 L 796.667969 489.449219 C 797.0625 488.898438 797.117188 488.183594 796.804688 487.582031 C 796.496094 486.980469 795.882812 486.609375 795.207031 486.609375 L 794.425781 486.609375 L 794.425781 483.761719 L 802.042969 483.761719 C 803.910156 483.761719 805.429688 482.246094 805.429688 480.382812 C 805.429688 478.519531 803.910156 477.003906 802.042969 477.003906 L 686.019531 477.003906 C 686.015625 477.003906 686.015625 477.003906 686.015625 477.003906 C 685.722656 477.003906 685.429688 476.984375 685.140625 476.960938 C 685.070312 476.957031 685.003906 476.949219 684.933594 476.941406 C 684.664062 476.914062 684.394531 476.875 684.128906 476.828125 C 684.113281 476.824219 684.09375 476.820312 684.078125 476.820312 C 683.777344 476.761719 683.484375 476.691406 683.195312 476.605469 C 683.164062 476.597656 683.136719 476.589844 683.109375 476.582031 C 681.605469 476.136719 680.21875 475.34375 679.070312 474.246094 C 679.066406 474.246094 679.0625 474.246094 679.0625 474.242188 C 678.367188 473.582031 677.757812 472.820312 677.261719 471.957031 C 675.433594 468.796875 675.4375 465.027344 677.265625 461.871094 L 688.6875 442.285156 L 689.734375 440.492188 L 690.714844 438.8125 L 745.335938 433.457031 C 746.238281 433.367188 747.050781 432.9375 747.625 432.238281 C 748.199219 431.542969 748.464844 430.664062 748.378906 429.765625 C 748.304688 429.035156 748 428.382812 747.546875 427.867188 L 793.167969 423.457031 C 793.195312 423.453125 793.21875 423.449219 793.238281 423.445312 L 813.273438 421.507812 C 813.320312 421.503906 813.367188 421.496094 813.371094 421.492188 C 813.519531 421.472656 813.660156 421.441406 813.84375 421.394531 C 813.894531 421.382812 813.949219 421.367188 814 421.351562 C 814.144531 421.304688 814.285156 421.246094 814.449219 421.164062 C 814.492188 421.148438 814.535156 421.128906 814.574219 421.109375 C 814.746094 421.011719 814.917969 420.898438 815.074219 420.769531 C 815.113281 420.738281 815.152344 420.703125 815.207031 420.648438 C 815.316406 420.550781 815.417969 420.453125 815.519531 420.335938 C 815.554688 420.292969 815.585938 420.25 815.648438 420.167969 C 815.726562 420.0625 815.800781 419.957031 815.867188 419.839844 C 815.910156 419.773438 815.945312 419.699219 815.984375 419.621094 C 816.035156 419.515625 816.082031 419.402344 816.125 419.289062 C 816.15625 419.199219 816.183594 419.113281 816.210938 419.023438 C 816.226562 418.976562 816.242188 418.929688 816.253906 418.878906 L 830.71875 354.003906 C 833.226562 353.363281 835.132812 351.171875 835.289062 348.480469 C 835.484375 345.136719 832.917969 342.261719 829.566406 342.066406 Z M 831.066406 352.441406 C 830.820312 352.546875 830.566406 352.632812 830.304688 352.695312 C 830.066406 352.753906 829.824219 352.789062 829.574219 352.808594 C 829.363281 352.824219 829.152344 352.828125 828.9375 352.816406 L 825.496094 352.617188 L 824.800781 352.574219 L 824.105469 352.535156 L 812.75 351.871094 C 814.15625 350.835938 815.105469 349.210938 815.214844 347.347656 C 815.328125 345.4375 814.535156 343.679688 813.210938 342.488281 L 826.949219 343.289062 L 829.488281 343.4375 C 830.441406 343.492188 831.308594 343.828125 832.023438 344.359375 C 833.25 345.273438 834.011719 346.765625 833.914062 348.398438 C 833.808594 350.226562 832.652344 351.757812 831.066406 352.441406 Z M 814.878906 418.667969 C 814.867188 418.71875 814.847656 418.769531 814.828125 418.824219 C 814.804688 418.890625 814.777344 418.957031 814.746094 419.023438 C 814.722656 419.066406 814.703125 419.109375 814.679688 419.148438 C 814.640625 419.21875 814.59375 419.28125 814.546875 419.34375 L 814.507812 419.394531 C 814.496094 419.414062 814.480469 419.433594 814.472656 419.445312 C 814.414062 419.511719 814.351562 419.570312 814.285156 419.628906 L 814.207031 419.703125 C 814.113281 419.78125 814.011719 419.847656 813.925781 419.894531 C 813.894531 419.910156 813.863281 419.921875 813.835938 419.9375 C 813.75 419.980469 813.664062 420.019531 813.570312 420.046875 L 813.453125 420.078125 C 813.371094 420.097656 813.285156 420.117188 813.199219 420.128906 C 813.167969 420.132812 813.136719 420.136719 813.105469 420.144531 L 795.738281 421.824219 C 795.746094 421.8125 795.753906 421.800781 795.761719 421.789062 C 795.804688 421.71875 795.839844 421.644531 795.878906 421.570312 C 795.929688 421.460938 795.976562 421.351562 796.019531 421.234375 C 796.050781 421.148438 796.078125 421.058594 796.101562 420.972656 C 796.121094 420.925781 796.132812 420.878906 796.144531 420.828125 L 796.847656 417.6875 L 810.800781 416.335938 C 811.097656 416.308594 811.34375 416.09375 811.40625 415.804688 L 815.0625 399.40625 L 818.136719 399.40625 C 818.523438 399.40625 818.894531 399.328125 819.234375 399.1875 L 814.910156 418.566406 C 814.898438 418.597656 814.890625 418.628906 814.878906 418.667969 Z M 774.074219 423.925781 L 772.550781 424.070312 L 754.554688 425.8125 L 753.027344 425.960938 L 752.425781 426.015625 L 750.917969 426.164062 L 745.136719 426.722656 L 733.65625 427.832031 L 732.128906 427.980469 L 731.566406 428.035156 L 730.007812 428.183594 L 718.277344 429.320312 L 710.875 430.035156 L 709.324219 430.1875 L 708.773438 430.238281 L 707.246094 430.386719 L 688.722656 432.179688 L 687.210938 432.324219 L 686.605469 432.382812 L 685.070312 432.53125 L 666.675781 434.308594 C 666.601562 434.316406 666.535156 434.316406 666.460938 434.320312 C 666.367188 434.320312 666.265625 434.308594 666.140625 434.285156 L 666.035156 434.261719 C 665.960938 434.246094 665.890625 434.226562 665.816406 434.199219 C 665.777344 434.1875 665.742188 434.171875 665.707031 434.160156 C 665.628906 434.125 665.554688 434.089844 665.484375 434.046875 C 665.472656 434.042969 665.421875 434.015625 665.414062 434.011719 C 665.316406 433.949219 665.230469 433.882812 665.152344 433.816406 C 665.144531 433.808594 665.105469 433.769531 665.097656 433.761719 C 665.035156 433.703125 664.976562 433.636719 664.917969 433.566406 C 664.902344 433.546875 664.886719 433.523438 664.851562 433.472656 C 664.808594 433.414062 664.769531 433.355469 664.734375 433.292969 C 664.710938 433.253906 664.691406 433.214844 664.671875 433.171875 C 664.664062 433.160156 664.648438 433.128906 664.636719 433.113281 L 652.464844 405.175781 L 651.847656 403.753906 L 651 401.8125 L 638.640625 373.445312 L 638.027344 372.03125 L 637.804688 371.519531 L 637.175781 370.082031 L 625.089844 342.34375 L 629.589844 342.605469 L 640.765625 368.253906 L 641.066406 368.941406 L 641.367188 369.632812 L 642.546875 372.339844 L 642.84375 373.027344 L 643.144531 373.71875 L 654.566406 399.929688 L 655.152344 401.28125 L 656.308594 403.925781 L 656.601562 404.601562 L 656.894531 405.273438 L 667.542969 429.71875 C 667.664062 429.992188 667.949219 430.152344 668.242188 430.128906 L 683.398438 428.664062 L 684.097656 428.59375 L 684.792969 428.527344 L 687.519531 428.265625 L 688.214844 428.195312 L 688.910156 428.128906 L 705.898438 426.488281 L 706.585938 426.421875 L 707.269531 426.355469 L 709.957031 426.09375 L 710.644531 426.027344 L 711.328125 425.960938 L 728.871094 424.265625 L 730.246094 424.132812 L 732.9375 423.871094 L 734.3125 423.738281 L 749.964844 422.226562 L 750.660156 422.15625 L 751.355469 422.089844 L 754.085938 421.828125 L 754.78125 421.757812 L 755.480469 421.691406 L 771.703125 420.121094 L 772.414062 420.054688 L 773.125 419.984375 L 775.902344 419.714844 L 776.613281 419.648438 L 777.324219 419.578125 L 790.695312 418.285156 C 790.992188 418.257812 791.238281 418.042969 791.300781 417.75 L 795.382812 399.453125 L 795.535156 398.757812 L 795.691406 398.066406 L 795.789062 397.617188 L 796.296875 395.347656 L 796.453125 394.652344 L 796.5 394.445312 L 796.605469 393.957031 L 800.730469 375.460938 L 800.882812 374.773438 L 801.035156 374.089844 L 801.0625 373.972656 L 801.636719 371.402344 L 801.730469 370.976562 L 801.789062 370.71875 L 801.941406 370.035156 L 805.765625 352.878906 L 808.785156 353.054688 C 808.90625 353.058594 809.023438 353.0625 809.144531 353.0625 C 809.226562 353.0625 809.304688 353.054688 809.386719 353.050781 C 809.542969 353.046875 809.699219 353.035156 809.855469 353.019531 L 809.84375 353.078125 L 806.039062 370.136719 L 805.886719 370.824219 L 805.753906 371.414062 L 805.730469 371.507812 L 805.410156 372.949219 L 805.296875 373.46875 L 805.066406 374.492188 L 804.957031 374.988281 L 804.914062 375.179688 L 804.761719 375.867188 L 800.789062 393.675781 L 800.636719 394.363281 L 800.484375 395.046875 L 800.433594 395.269531 L 800.09375 396.792969 L 799.96875 397.359375 L 799.816406 398.03125 L 799.664062 398.71875 L 799.636719 398.839844 L 799.511719 399.40625 L 795.71875 416.417969 L 795.5625 417.121094 L 795.40625 417.828125 L 794.804688 420.515625 C 794.792969 420.546875 794.785156 420.578125 794.773438 420.613281 C 794.757812 420.667969 794.742188 420.722656 794.726562 420.769531 C 794.699219 420.835938 794.671875 420.902344 794.640625 420.96875 C 794.617188 421.011719 794.597656 421.054688 794.570312 421.097656 C 794.53125 421.167969 794.488281 421.230469 794.441406 421.289062 L 794.40625 421.339844 C 794.390625 421.359375 794.378906 421.378906 794.363281 421.394531 C 794.308594 421.460938 794.246094 421.519531 794.175781 421.582031 L 794.105469 421.652344 C 794.007812 421.730469 793.90625 421.796875 793.820312 421.84375 C 793.789062 421.855469 793.757812 421.871094 793.730469 421.882812 C 793.675781 421.910156 793.625 421.929688 793.570312 421.953125 C 793.535156 421.964844 793.503906 421.984375 793.46875 421.996094 L 793.347656 422.027344 C 793.261719 422.046875 793.179688 422.066406 793.09375 422.078125 C 793.0625 422.082031 793.03125 422.085938 793 422.09375 L 792.832031 422.109375 L 792.109375 422.179688 L 776.191406 423.71875 L 774.660156 423.867188 Z M 619.476562 335.933594 C 619.515625 335.273438 619.691406 334.644531 619.984375 334.070312 C 620.113281 333.824219 620.257812 333.585938 620.429688 333.363281 C 620.582031 333.167969 620.753906 332.980469 620.9375 332.808594 C 620.972656 332.773438 621.007812 332.734375 621.046875 332.699219 C 621.917969 331.925781 623.015625 331.511719 624.167969 331.511719 C 624.261719 331.511719 624.355469 331.515625 624.453125 331.519531 L 624.769531 331.539062 L 625.539062 331.582031 L 626.308594 331.628906 L 640.230469 332.4375 L 640.636719 332.460938 L 641 332.484375 L 641.769531 332.527344 L 641.835938 332.53125 L 643.96875 332.65625 L 646.269531 332.792969 L 647.039062 332.835938 L 647.808594 332.882812 L 809.414062 342.300781 C 812.007812 342.453125 813.992188 344.679688 813.839844 347.265625 C 813.75 348.792969 812.929688 350.113281 811.734375 350.90625 C 811.484375 351.074219 811.21875 351.214844 810.9375 351.332031 C 810.691406 351.433594 810.4375 351.515625 810.175781 351.574219 C 809.9375 351.628906 809.6875 351.664062 809.4375 351.679688 C 809.246094 351.691406 809.058594 351.695312 808.863281 351.683594 L 806.070312 351.519531 L 805.375 351.480469 L 804.675781 351.4375 L 788.652344 350.503906 L 787.929688 350.460938 L 787.175781 350.417969 L 784.867188 350.285156 L 784.113281 350.238281 L 783.394531 350.199219 L 761.429688 348.917969 L 760.707031 348.875 L 759.949219 348.832031 L 757.644531 348.695312 L 756.890625 348.652344 L 756.171875 348.609375 L 732.691406 347.242188 L 731.964844 347.199219 L 731.214844 347.15625 L 728.90625 347.019531 L 728.152344 346.976562 L 727.429688 346.933594 L 701.050781 345.398438 L 700.339844 345.355469 L 699.585938 345.3125 L 697.273438 345.175781 L 696.519531 345.132812 L 695.796875 345.089844 L 665.257812 343.3125 L 664.53125 343.269531 L 663.773438 343.222656 L 661.464844 343.089844 L 660.714844 343.046875 L 659.984375 343.003906 L 641.40625 341.921875 L 640.179688 341.847656 L 630.515625 341.285156 L 629.746094 341.242188 L 628.976562 341.195312 L 624.476562 340.933594 L 623.902344 340.898438 C 623.835938 340.894531 623.769531 340.882812 623.703125 340.878906 C 623.421875 340.847656 623.148438 340.800781 622.882812 340.722656 C 620.8125 340.132812 619.34375 338.171875 619.476562 335.933594 Z M 614.46875 317.960938 L 614.242188 317.445312 L 614.183594 317.3125 L 613.9375 316.746094 L 613.902344 316.660156 L 613.863281 316.578125 L 613.257812 315.183594 L 612.652344 313.792969 L 611.175781 310.410156 C 610.964844 309.917969 610.953125 309.371094 611.152344 308.875 C 611.347656 308.375 611.726562 307.984375 612.21875 307.769531 C 612.480469 307.65625 612.75 307.605469 613.019531 307.605469 C 613.253906 307.605469 613.484375 307.648438 613.699219 307.726562 C 613.945312 307.816406 614.171875 307.945312 614.367188 308.121094 C 614.574219 308.308594 614.746094 308.539062 614.867188 308.808594 L 617.589844 315.0625 L 617.875 315.714844 L 618.15625 316.359375 L 618.390625 316.898438 L 618.695312 317.597656 L 618.996094 318.292969 L 624.160156 330.144531 C 622.777344 330.144531 621.445312 330.613281 620.363281 331.488281 L 614.546875 318.140625 Z M 613.023438 302.496094 C 613.125 302.496094 613.222656 302.507812 613.320312 302.511719 C 613.554688 302.523438 613.78125 302.542969 614.007812 302.574219 C 614.238281 302.605469 614.464844 302.648438 614.6875 302.703125 C 617.816406 303.453125 620.152344 306.261719 620.152344 309.609375 C 620.152344 311.261719 619.578125 312.78125 618.625 313.992188 L 616.128906 308.261719 C 615.789062 307.480469 615.179688 306.894531 614.460938 306.554688 C 614.242188 306.453125 614.015625 306.375 613.785156 306.324219 C 613.5625 306.269531 613.332031 306.242188 613.101562 306.234375 C 612.625 306.222656 612.136719 306.308594 611.671875 306.511719 C 610.839844 306.871094 610.203125 307.53125 609.871094 308.371094 C 609.539062 309.210938 609.554688 310.128906 609.914062 310.957031 L 612.414062 316.691406 C 608.765625 316.378906 605.890625 313.324219 605.890625 309.609375 C 605.890625 305.6875 609.089844 302.496094 613.023438 302.496094 Z M 631.820312 304.546875 L 634.398438 304.835938 C 634.679688 304.871094 634.949219 304.929688 635.214844 305 C 637.945312 305.726562 639.917969 308.207031 639.917969 311.09375 C 639.917969 311.980469 639.734375 312.824219 639.402344 313.585938 C 639.285156 313.859375 639.144531 314.117188 638.992188 314.367188 C 638.851562 314.597656 638.699219 314.820312 638.53125 315.03125 C 637.671875 316.101562 636.472656 316.886719 635.101562 317.222656 C 634.875 317.277344 634.644531 317.324219 634.40625 317.355469 C 634.167969 317.386719 633.925781 317.40625 633.679688 317.40625 C 633.652344 317.410156 633.625 317.414062 633.597656 317.414062 C 633.402344 317.40625 626.402344 317.171875 619.914062 316.949219 L 619.234375 315.386719 C 620.652344 313.871094 621.527344 311.84375 621.527344 309.609375 C 621.527344 306.972656 620.316406 304.613281 618.417969 303.054688 Z M 799.628906 374.074219 L 783.539062 373.894531 L 779.851562 396.039062 L 794.875 395.40625 L 794.265625 398.125 L 779.398438 398.75 L 776.136719 418.3125 L 773.355469 418.582031 L 776.644531 398.867188 L 755.925781 399.738281 L 754.203125 420.4375 L 751.472656 420.699219 L 753.207031 399.851562 L 732.460938 400.722656 L 732.910156 422.496094 L 730.21875 422.753906 L 729.765625 400.835938 L 706.863281 401.800781 L 709.785156 424.730469 L 707.097656 424.992188 L 704.15625 401.914062 L 680.449219 402.910156 L 687.144531 426.921875 L 684.417969 427.183594 L 677.679688 403.027344 L 657.78125 403.863281 L 656.628906 401.21875 L 676.9375 400.363281 L 669.207031 372.632812 L 644.054688 372.355469 L 642.875 369.648438 L 668.453125 369.933594 L 661.347656 344.457031 L 664.195312 344.625 L 671.261719 369.964844 L 700.128906 370.28125 L 697.105469 346.542969 L 699.847656 346.703125 L 702.851562 370.3125 L 729.140625 370.601562 L 728.683594 348.382812 L 731.386719 348.542969 L 731.84375 370.632812 L 755.617188 370.894531 L 757.351562 350.054688 L 760.046875 350.210938 L 758.324219 370.925781 L 781.257812 371.179688 L 784.511719 351.636719 L 787.222656 351.796875 L 783.988281 371.207031 L 800.230469 371.386719 Z M 781.484375 394.59375 L 784.703125 375.28125 L 799.324219 375.445312 L 795.183594 394.019531 Z M 780.574219 400.074219 L 793.957031 399.511719 L 790.066406 416.96875 L 777.554688 418.175781 Z M 757.195312 401.058594 L 775.007812 400.308594 L 771.9375 418.71875 L 755.59375 420.300781 Z M 733.867188 402.039062 L 751.707031 401.289062 L 750.078125 420.835938 L 734.285156 422.363281 Z M 708.417969 403.109375 L 728.417969 402.269531 L 728.84375 422.886719 L 711.15625 424.597656 Z M 682.242188 404.210938 L 702.953125 403.339844 L 705.726562 425.125 L 688.535156 426.785156 Z M 676.648438 404.445312 L 683.027344 427.320312 L 668.609375 428.714844 L 658.367188 405.214844 Z M 668.15625 373.996094 L 675.148438 399.066406 L 656.039062 399.867188 L 644.65625 373.734375 Z M 695.707031 346.460938 L 698.5625 368.890625 L 672.3125 368.601562 L 665.648438 344.707031 Z M 727.738281 369.214844 L 704.066406 368.953125 L 701.242188 346.785156 L 727.304688 348.304688 Z M 755.976562 349.976562 L 754.351562 369.507812 L 733.191406 369.273438 L 732.765625 348.621094 Z M 783.132812 351.558594 L 780.09375 369.792969 L 759.816406 369.570312 L 761.421875 350.292969 Z M 659.90625 344.375 C 659.921875 344.441406 659.933594 344.503906 659.953125 344.570312 L 666.636719 368.539062 L 642.273438 368.269531 L 631.132812 342.695312 Z M 785.609375 369.851562 L 788.605469 351.875 L 804.375 352.796875 L 800.535156 370.019531 Z M 813.652344 399.40625 L 810.171875 415.019531 L 797.160156 416.277344 L 800.921875 399.40625 Z M 801.230469 398.03125 L 801.894531 395.046875 L 818.136719 395.046875 C 818.960938 395.046875 819.632812 395.714844 819.632812 396.539062 C 819.632812 397.363281 818.960938 398.03125 818.136719 398.03125 Z M 802.199219 393.675781 L 806.171875 375.867188 L 818.902344 375.867188 L 814.933594 393.675781 Z M 806.476562 374.492188 L 807.140625 371.507812 L 823.449219 371.507812 C 824.273438 371.507812 824.941406 372.175781 824.941406 373 C 824.941406 373.824219 824.273438 374.492188 823.449219 374.492188 Z M 807.449219 370.136719 L 811.234375 353.160156 L 823.800781 353.890625 L 820.179688 370.136719 Z M 639.613281 331.027344 L 625.695312 330.214844 L 620.523438 318.34375 C 626.558594 318.550781 633.5 318.785156 633.585938 318.785156 C 633.816406 318.785156 634.042969 318.769531 634.265625 318.75 Z M 639.523438 327.371094 L 635.65625 318.496094 C 637 318.121094 638.195312 317.394531 639.136719 316.417969 L 643.90625 327.371094 Z M 820.253906 394.609375 C 819.726562 394.035156 818.972656 393.675781 818.136719 393.675781 L 816.339844 393.675781 L 820.3125 375.867188 L 823.449219 375.867188 C 823.808594 375.867188 824.15625 375.796875 824.476562 375.671875 Z M 825.515625 371.015625 C 824.992188 370.476562 824.257812 370.136719 823.449219 370.136719 L 821.589844 370.136719 L 825.195312 353.972656 L 828.859375 354.1875 C 828.976562 354.195312 829.097656 354.199219 829.21875 354.199219 C 829.234375 354.199219 829.25 354.195312 829.265625 354.195312 Z M 665.5625 436.695312 C 665.585938 436.664062 665.613281 436.632812 665.65625 436.566406 C 665.691406 436.515625 665.722656 436.460938 665.761719 436.414062 C 665.792969 436.382812 665.824219 436.351562 665.859375 436.320312 L 665.902344 436.277344 C 665.902344 436.277344 665.9375 436.246094 665.9375 436.246094 C 665.972656 436.210938 666.007812 436.175781 666.046875 436.144531 C 666.082031 436.113281 666.121094 436.089844 666.160156 436.066406 L 666.242188 436.015625 C 666.285156 435.984375 666.328125 435.957031 666.375 435.933594 C 666.414062 435.914062 666.460938 435.894531 666.503906 435.878906 L 666.605469 435.839844 C 666.648438 435.820312 666.691406 435.804688 666.738281 435.789062 C 666.792969 435.773438 666.851562 435.765625 666.953125 435.75 C 666.996094 435.742188 667.035156 435.730469 667.09375 435.71875 L 685.785156 433.882812 L 686.601562 433.804688 L 718.332031 430.695312 L 745.132812 428.101562 C 746.101562 428.167969 746.910156 428.910156 747.007812 429.898438 C 747.058594 430.433594 746.902344 430.953125 746.558594 431.367188 C 746.21875 431.78125 745.738281 432.039062 745.203125 432.089844 L 690.054688 437.496094 L 689.480469 437.554688 L 684.9375 438 L 684.09375 438.082031 L 683.601562 438.128906 L 683.25 438.164062 L 668.867188 439.574219 C 668.644531 439.597656 668.449219 439.722656 668.335938 439.914062 L 656 461.183594 C 653.921875 464.769531 653.917969 469.054688 655.996094 472.644531 C 658.070312 476.230469 661.789062 478.375 665.945312 478.375 L 686.015625 478.375 C 686.019531 478.375 686.019531 478.375 686.019531 478.375 L 793.621094 478.375 C 794.726562 478.375 795.628906 479.273438 795.628906 480.382812 C 795.628906 481.488281 794.726562 482.386719 793.621094 482.386719 L 665.945312 482.386719 C 660.335938 482.386719 655.3125 479.492188 652.511719 474.648438 C 649.707031 469.800781 649.710938 464.015625 652.519531 459.171875 Z M 676.070312 472.644531 C 676.359375 473.144531 676.683594 473.613281 677.035156 474.058594 L 672.269531 474.058594 C 669.792969 469.335938 669.898438 463.820312 672.59375 459.175781 L 682.242188 442.625 L 686.894531 442.625 L 676.074219 461.183594 C 673.996094 464.769531 673.992188 469.054688 676.070312 472.644531 Z M 681.25 441.59375 L 671.402344 458.488281 C 668.394531 463.671875 668.347656 469.847656 671.25 475.070312 L 671.296875 475.160156 C 671.320312 475.199219 671.34375 475.242188 671.363281 475.28125 C 671.375 475.300781 671.382812 475.316406 671.390625 475.332031 C 671.398438 475.34375 671.402344 475.351562 671.410156 475.359375 C 671.570312 475.640625 671.742188 475.914062 671.921875 476.183594 C 671.996094 476.296875 672.074219 476.40625 672.148438 476.515625 C 672.257812 476.675781 672.371094 476.832031 672.484375 476.984375 C 672.488281 476.992188 672.492188 476.996094 672.496094 477.003906 L 665.945312 477.003906 C 662.289062 477.003906 659.011719 475.117188 657.1875 471.957031 C 655.359375 468.796875 655.363281 465.027344 657.195312 461.871094 L 669.351562 440.90625 L 682.398438 439.628906 Z M 802.042969 478.375 C 803.152344 478.375 804.050781 479.273438 804.050781 480.382812 C 804.050781 481.488281 803.152344 482.386719 802.042969 482.386719 L 796.339844 482.386719 C 796.757812 481.824219 797.007812 481.132812 797.007812 480.382812 C 797.007812 479.628906 796.757812 478.9375 796.339844 478.375 Z M 795.582031 488.210938 C 795.617188 488.28125 795.683594 488.460938 795.550781 488.648438 L 792.425781 493 L 792.019531 493.5625 L 791.617188 494.128906 L 788.410156 498.59375 L 787.992188 499.175781 L 787.566406 499.765625 L 784.53125 504 C 784.238281 504.40625 783.867188 504.601562 783.503906 504.671875 C 783.261719 504.714844 783.027344 504.703125 782.8125 504.652344 C 782.71875 504.632812 782.628906 504.605469 782.546875 504.574219 C 782.417969 504.523438 782.289062 504.449219 782.164062 504.359375 C 781.746094 504.050781 781.410156 503.527344 781.515625 502.785156 L 781.96875 499.703125 L 782.195312 498.136719 L 782.265625 497.660156 L 782.371094 496.9375 L 782.386719 496.835938 L 782.476562 496.226562 L 783.269531 490.78125 L 783.371094 490.09375 L 783.46875 489.410156 L 783.589844 488.589844 C 783.640625 488.242188 783.945312 487.980469 784.296875 487.980469 L 795.207031 487.980469 C 795.4375 487.980469 795.546875 488.140625 795.582031 488.210938 Z M 783.394531 514.269531 C 781.566406 514.269531 779.835938 513.851562 778.289062 513.105469 C 779.875 511.945312 781.164062 510.453125 782.085938 508.757812 C 782.507812 508.847656 782.945312 508.894531 783.394531 508.894531 C 786.914062 508.894531 789.78125 506.035156 789.78125 502.523438 C 789.78125 501.574219 789.566406 500.675781 789.191406 499.863281 L 792.5625 495.167969 C 794.191406 497.183594 795.167969 499.742188 795.167969 502.523438 C 795.167969 509 789.886719 514.269531 783.394531 514.269531 Z M 774.019531 511.710938 C 772.007812 513.308594 769.464844 514.269531 766.699219 514.269531 C 760.207031 514.269531 754.925781 509 754.925781 502.523438 C 754.925781 496.566406 759.398438 491.632812 765.167969 490.882812 L 764.332031 496.613281 C 761.980469 497.554688 760.3125 499.847656 760.3125 502.523438 C 760.3125 506.035156 763.179688 508.894531 766.699219 508.894531 C 768.398438 508.894531 769.941406 508.222656 771.085938 507.140625 C 771.089844 507.136719 771.09375 507.132812 771.101562 507.128906 C 771.28125 506.957031 771.457031 506.777344 771.617188 506.585938 C 771.617188 506.585938 771.617188 506.582031 771.617188 506.582031 C 771.800781 506.363281 771.960938 506.128906 772.113281 505.886719 C 772.117188 505.882812 772.121094 505.875 772.121094 505.871094 C 772.730469 504.898438 773.085938 503.753906 773.085938 502.523438 C 773.085938 501.574219 772.871094 500.675781 772.496094 499.863281 L 775.867188 495.167969 C 776.8125 496.335938 777.539062 497.6875 777.980469 499.164062 C 778.074219 499.480469 778.160156 499.804688 778.230469 500.136719 C 778.339844 500.667969 778.414062 501.214844 778.449219 501.773438 C 778.464844 502.019531 778.472656 502.273438 778.472656 502.523438 C 778.472656 502.777344 778.464844 503.027344 778.449219 503.277344 C 778.414062 503.832031 778.339844 504.378906 778.230469 504.914062 C 778.160156 505.242188 778.078125 505.566406 777.980469 505.886719 C 777.417969 507.757812 776.402344 509.4375 775.054688 510.792969 C 775.050781 510.792969 775.050781 510.796875 775.046875 510.796875 C 774.886719 510.960938 774.71875 511.117188 774.546875 511.269531 C 774.378906 511.421875 774.203125 511.566406 774.023438 511.707031 C 774.023438 511.710938 774.023438 511.710938 774.019531 511.710938 Z M 766.777344 489.410156 L 766.894531 488.589844 C 766.945312 488.242188 767.25 487.980469 767.601562 487.980469 L 778.511719 487.980469 C 778.742188 487.980469 778.851562 488.140625 778.886719 488.210938 C 778.921875 488.28125 778.988281 488.460938 778.855469 488.648438 L 777.195312 490.957031 L 777.183594 490.976562 L 776.144531 492.421875 L 776.140625 492.429688 L 775.730469 493 L 775.324219 493.5625 L 774.921875 494.128906 L 771.714844 498.59375 L 771.460938 498.949219 L 771.457031 498.953125 L 771.296875 499.175781 L 770.875 499.765625 L 770.421875 500.394531 L 770.417969 500.398438 L 767.835938 504 C 767.269531 504.785156 766.414062 504.800781 765.851562 504.574219 C 765.289062 504.347656 764.683594 503.746094 764.824219 502.785156 L 765.570312 497.660156 L 765.675781 496.9375 L 765.78125 496.226562 L 766.574219 490.78125 L 766.675781 490.09375 Z M 784.929688 483.761719 L 784.929688 486.609375 L 784.296875 486.609375 C 783.265625 486.609375 782.375 487.375 782.226562 488.394531 L 782.070312 489.472656 C 781.222656 489.558594 780.394531 489.726562 779.601562 489.964844 L 779.972656 489.449219 C 780.367188 488.898438 780.421875 488.183594 780.109375 487.582031 C 779.800781 486.980469 779.1875 486.609375 778.511719 486.609375 L 777.730469 486.609375 L 777.730469 483.761719 Z M 783.195312 506.078125 C 784.148438 506.078125 785.054688 505.625 785.648438 504.796875 L 788.222656 501.210938 C 788.335938 501.632812 788.402344 502.070312 788.402344 502.523438 C 788.402344 505.28125 786.15625 507.519531 783.394531 507.519531 C 783.160156 507.519531 782.933594 507.5 782.707031 507.46875 C 782.894531 507.015625 783.050781 506.546875 783.183594 506.074219 C 783.1875 506.074219 783.191406 506.078125 783.195312 506.078125 Z M 771.148438 504.8125 C 771 505.097656 770.824219 505.367188 770.628906 505.617188 C 770.625 505.621094 770.621094 505.625 770.617188 505.628906 C 769.699219 506.78125 768.285156 507.519531 766.699219 507.519531 C 763.9375 507.519531 761.691406 505.28125 761.691406 502.523438 C 761.691406 500.722656 762.652344 499.144531 764.089844 498.265625 L 763.460938 502.589844 C 763.253906 504.003906 764.007812 505.3125 765.335938 505.847656 C 765.722656 506 766.117188 506.078125 766.503906 506.078125 C 767.453125 506.078125 768.359375 505.625 768.953125 504.796875 L 770.253906 502.984375 L 770.257812 502.980469 L 770.945312 502.027344 L 771.527344 501.210938 C 771.578125 501.394531 771.617188 501.582031 771.648438 501.773438 C 771.648438 501.785156 771.652344 501.796875 771.652344 501.808594 C 771.6875 502.042969 771.710938 502.28125 771.710938 502.523438 C 771.710938 502.78125 771.683594 503.027344 771.648438 503.273438 C 771.648438 503.277344 771.644531 503.277344 771.644531 503.28125 C 771.5625 503.824219 771.394531 504.339844 771.148438 504.8125 Z M 781.269531 494.953125 C 781.039062 494.628906 780.796875 494.316406 780.535156 494.011719 L 781.628906 492.488281 Z M 769.609375 483.761719 L 776.351562 483.761719 L 776.351562 486.609375 L 769.609375 486.609375 Z M 700.082031 488.210938 C 700.117188 488.28125 700.1875 488.460938 700.050781 488.648438 L 696.925781 493 L 696.523438 493.5625 L 696.117188 494.128906 L 692.910156 498.59375 L 692.492188 499.175781 L 692.070312 499.765625 L 689.03125 504 C 688.742188 504.40625 688.371094 504.601562 688.003906 504.671875 C 687.765625 504.714844 687.527344 504.703125 687.3125 504.652344 C 687.21875 504.632812 687.128906 504.605469 687.046875 504.574219 C 686.917969 504.523438 686.789062 504.449219 686.667969 504.359375 C 686.25 504.054688 685.910156 503.527344 686.019531 502.785156 L 686.46875 499.703125 L 686.695312 498.136719 L 686.765625 497.660156 L 686.871094 496.9375 L 686.886719 496.835938 L 686.976562 496.226562 L 687.769531 490.78125 L 687.871094 490.09375 L 687.972656 489.410156 L 688.089844 488.589844 C 688.140625 488.242188 688.445312 487.980469 688.796875 487.980469 L 699.707031 487.980469 C 699.941406 487.980469 700.046875 488.140625 700.082031 488.210938 Z M 687.894531 514.269531 C 686.066406 514.269531 684.335938 513.851562 682.789062 513.105469 C 684.375 511.945312 685.667969 510.453125 686.589844 508.757812 C 687.011719 508.847656 687.449219 508.894531 687.894531 508.894531 C 691.417969 508.894531 694.28125 506.035156 694.28125 502.523438 C 694.28125 501.574219 694.066406 500.675781 693.691406 499.863281 L 697.0625 495.167969 C 698.691406 497.183594 699.671875 499.742188 699.671875 502.523438 C 699.671875 509 694.386719 514.269531 687.894531 514.269531 Z M 678.523438 511.710938 C 676.511719 513.308594 673.964844 514.269531 671.199219 514.269531 C 664.707031 514.269531 659.425781 509 659.425781 502.523438 C 659.425781 496.566406 663.898438 491.632812 669.671875 490.882812 L 668.835938 496.613281 C 666.480469 497.554688 664.816406 499.847656 664.816406 502.523438 C 664.816406 506.035156 667.679688 508.894531 671.199219 508.894531 C 672.902344 508.894531 674.441406 508.222656 675.589844 507.140625 C 675.59375 507.136719 675.597656 507.132812 675.601562 507.128906 C 675.78125 506.957031 675.957031 506.777344 676.117188 506.585938 C 676.117188 506.585938 676.117188 506.582031 676.117188 506.582031 C 676.300781 506.363281 676.464844 506.128906 676.617188 505.886719 C 676.617188 505.882812 676.621094 505.878906 676.625 505.871094 C 677.230469 504.898438 677.585938 503.753906 677.585938 502.523438 C 677.585938 501.574219 677.371094 500.675781 676.996094 499.863281 L 680.371094 495.167969 C 681.3125 496.335938 682.039062 497.6875 682.480469 499.164062 C 682.578125 499.480469 682.660156 499.804688 682.730469 500.136719 C 682.839844 500.667969 682.914062 501.214844 682.949219 501.773438 C 682.964844 502.019531 682.976562 502.273438 682.976562 502.523438 C 682.976562 502.777344 682.964844 503.027344 682.949219 503.277344 C 682.914062 503.832031 682.839844 504.378906 682.730469 504.910156 C 682.660156 505.242188 682.578125 505.566406 682.480469 505.886719 C 681.917969 507.757812 680.902344 509.4375 679.554688 510.792969 C 679.554688 510.792969 679.550781 510.796875 679.546875 510.796875 C 679.386719 510.960938 679.21875 511.117188 679.050781 511.269531 C 678.878906 511.421875 678.703125 511.566406 678.527344 511.707031 C 678.523438 511.710938 678.523438 511.710938 678.523438 511.710938 Z M 671.277344 489.410156 L 671.394531 488.589844 C 671.445312 488.242188 671.75 487.980469 672.101562 487.980469 L 683.011719 487.980469 C 683.246094 487.980469 683.351562 488.140625 683.386719 488.210938 C 683.421875 488.28125 683.492188 488.460938 683.355469 488.648438 L 681.695312 490.957031 L 681.683594 490.976562 L 680.648438 492.421875 L 680.640625 492.429688 L 680.230469 493 L 679.828125 493.5625 L 679.421875 494.128906 L 676.214844 498.59375 L 675.960938 498.949219 L 675.957031 498.953125 L 675.796875 499.175781 L 675.375 499.765625 L 674.925781 500.394531 L 674.921875 500.398438 L 672.335938 504 C 671.773438 504.785156 670.917969 504.800781 670.351562 504.574219 C 669.789062 504.347656 669.183594 503.746094 669.324219 502.785156 L 670.070312 497.660156 L 670.179688 496.9375 L 670.28125 496.226562 L 671.078125 490.78125 L 671.175781 490.09375 Z M 689.429688 486.609375 L 688.796875 486.609375 C 687.765625 486.609375 686.878906 487.375 686.730469 488.394531 L 686.570312 489.472656 C 685.722656 489.558594 684.898438 489.726562 684.105469 489.964844 L 684.476562 489.449219 C 684.867188 488.898438 684.921875 488.183594 684.613281 487.582031 C 684.300781 486.980469 683.6875 486.609375 683.011719 486.609375 L 682.230469 486.609375 L 682.230469 483.761719 L 689.429688 483.761719 Z M 687.699219 506.078125 C 688.652344 506.078125 689.558594 505.625 690.152344 504.796875 L 692.726562 501.210938 C 692.839844 501.632812 692.90625 502.070312 692.90625 502.523438 C 692.90625 505.28125 690.660156 507.519531 687.894531 507.519531 C 687.660156 507.519531 687.433594 507.5 687.207031 507.46875 C 687.394531 507.015625 687.550781 506.546875 687.6875 506.074219 C 687.691406 506.074219 687.695312 506.078125 687.699219 506.078125 Z M 675.648438 504.8125 C 675.648438 504.8125 675.648438 504.8125 675.648438 504.816406 C 675.5 505.097656 675.328125 505.367188 675.128906 505.617188 C 675.125 505.621094 675.121094 505.625 675.121094 505.628906 C 674.203125 506.78125 672.789062 507.519531 671.199219 507.519531 C 668.4375 507.519531 666.191406 505.28125 666.191406 502.523438 C 666.191406 500.722656 667.15625 499.144531 668.59375 498.265625 L 667.960938 502.589844 C 667.753906 504.003906 668.507812 505.3125 669.839844 505.847656 C 670.222656 506 670.617188 506.078125 671.003906 506.078125 C 671.957031 506.078125 672.863281 505.625 673.457031 504.796875 L 674.757812 502.984375 L 674.761719 502.980469 L 675.445312 502.027344 L 676.03125 501.210938 C 676.078125 501.394531 676.121094 501.582031 676.148438 501.773438 C 676.148438 501.785156 676.152344 501.796875 676.152344 501.808594 C 676.1875 502.042969 676.210938 502.28125 676.210938 502.523438 C 676.210938 502.78125 676.1875 503.03125 676.148438 503.277344 C 676.148438 503.277344 676.148438 503.28125 676.148438 503.28125 C 676.0625 503.824219 675.894531 504.339844 675.648438 504.8125 Z M 685.769531 494.953125 C 685.542969 494.628906 685.296875 494.316406 685.035156 494.011719 L 686.128906 492.488281 Z M 674.113281 483.761719 L 680.855469 483.761719 L 680.855469 486.609375 L 674.113281 486.609375 Z M 672.015625 372.664062 L 679.707031 400.246094 L 703.816406 399.234375 L 700.472656 372.980469 Z M 680.742188 398.828125 L 673.832031 374.058594 L 699.257812 374.339844 L 702.261719 397.925781 Z M 732.40625 398.03125 L 753.433594 397.148438 L 755.394531 373.585938 L 731.898438 373.324219 Z M 733.753906 396.601562 L 733.304688 374.714844 L 753.898438 374.941406 L 752.160156 395.828125 Z M 756.148438 397.035156 L 777.09375 396.152344 L 780.808594 373.867188 L 758.097656 373.617188 Z M 779.1875 375.222656 L 775.921875 394.828125 L 757.652344 395.597656 L 759.363281 375.003906 Z M 703.195312 373.007812 L 706.523438 399.121094 L 729.710938 398.144531 L 729.199219 373.296875 Z M 727.847656 374.652344 L 728.304688 396.832031 L 707.730469 397.695312 L 704.761719 374.398438 Z M 727.847656 374.652344 " fill-opacity="1" fill-rule="nonzero"/></g></svg>