<svg xmlns="http://www.w3.org/2000/svg" xmlns:xlink="http://www.w3.org/1999/xlink" width="1920" zoomAndPan="magnify" viewBox="0 0 1440 809.999993" height="1080" preserveAspectRatio="xMidYMid meet" version="1.0"><defs><g/><clipPath id="71eac8815f"><path d="M 604.949219 289.492188 L 760 289.492188 L 760 445 L 604.949219 445 Z M 604.949219 289.492188 " clip-rule="nonzero"/></clipPath><clipPath id="53109a777d"><path d="M 745 430 L 835 430 L 835 520.492188 L 745 520.492188 Z M 745 430 " clip-rule="nonzero"/></clipPath></defs><path fill="#90a4ae" d="M 721.519531 420.617188 L 735.609375 406.476562 L 767.609375 438.578125 L 753.515625 452.71875 Z M 721.519531 420.617188 " fill-opacity="1" fill-rule="nonzero"/><path fill="#bbdefb" d="M 749.148438 367.117188 C 749.148438 368.214844 749.121094 369.3125 749.070312 370.40625 C 749.015625 371.503906 748.933594 372.597656 748.828125 373.6875 C 748.71875 374.78125 748.585938 375.871094 748.425781 376.957031 C 748.265625 378.039062 748.078125 379.121094 747.867188 380.195312 C 747.652344 381.273438 747.414062 382.34375 747.148438 383.40625 C 746.882812 384.472656 746.589844 385.527344 746.273438 386.578125 C 745.953125 387.628906 745.613281 388.671875 745.242188 389.703125 C 744.875 390.738281 744.480469 391.761719 744.0625 392.773438 C 743.644531 393.789062 743.199219 394.789062 742.734375 395.78125 C 742.265625 396.773438 741.773438 397.753906 741.257812 398.722656 C 740.742188 399.6875 740.203125 400.644531 739.640625 401.585938 C 739.078125 402.527344 738.496094 403.453125 737.886719 404.363281 C 737.28125 405.277344 736.648438 406.171875 736 407.054688 C 735.347656 407.9375 734.675781 408.800781 733.980469 409.648438 C 733.289062 410.496094 732.574219 411.328125 731.839844 412.140625 C 731.105469 412.953125 730.351562 413.746094 729.578125 414.523438 C 728.804688 415.300781 728.011719 416.054688 727.203125 416.792969 C 726.390625 417.53125 725.5625 418.246094 724.71875 418.941406 C 723.871094 419.636719 723.011719 420.3125 722.132812 420.964844 C 721.253906 421.621094 720.359375 422.25 719.449219 422.859375 C 718.542969 423.472656 717.617188 424.058594 716.679688 424.621094 C 715.742188 425.1875 714.789062 425.726562 713.824219 426.242188 C 712.863281 426.761719 711.886719 427.253906 710.894531 427.722656 C 709.90625 428.191406 708.90625 428.636719 707.898438 429.054688 C 706.886719 429.476562 705.867188 429.871094 704.835938 430.242188 C 703.808594 430.609375 702.769531 430.953125 701.722656 431.273438 C 700.675781 431.589844 699.621094 431.882812 698.5625 432.152344 C 697.5 432.417969 696.433594 432.65625 695.363281 432.871094 C 694.289062 433.085938 693.210938 433.273438 692.128906 433.433594 C 691.046875 433.59375 689.964844 433.730469 688.875 433.835938 C 687.785156 433.945312 686.695312 434.023438 685.605469 434.078125 C 684.511719 434.132812 683.417969 434.160156 682.324219 434.160156 C 681.230469 434.160156 680.136719 434.132812 679.046875 434.078125 C 677.953125 434.023438 676.863281 433.945312 675.773438 433.835938 C 674.6875 433.730469 673.601562 433.59375 672.519531 433.433594 C 671.4375 433.273438 670.359375 433.085938 669.289062 432.871094 C 668.214844 432.65625 667.148438 432.417969 666.089844 432.152344 C 665.027344 431.882812 663.972656 431.589844 662.925781 431.273438 C 661.878906 430.953125 660.84375 430.609375 659.8125 430.242188 C 658.78125 429.871094 657.761719 429.476562 656.753906 429.054688 C 655.742188 428.636719 654.742188 428.191406 653.753906 427.722656 C 652.765625 427.253906 651.789062 426.761719 650.824219 426.242188 C 649.859375 425.726562 648.910156 425.1875 647.972656 424.621094 C 647.03125 424.058594 646.109375 423.472656 645.199219 422.859375 C 644.289062 422.25 643.398438 421.621094 642.519531 420.964844 C 641.640625 420.3125 640.777344 419.636719 639.933594 418.941406 C 639.085938 418.246094 638.257812 417.53125 637.449219 416.792969 C 636.636719 416.054688 635.847656 415.300781 635.074219 414.523438 C 634.300781 413.746094 633.546875 412.953125 632.8125 412.140625 C 632.078125 411.328125 631.363281 410.496094 630.667969 409.648438 C 629.976562 408.800781 629.304688 407.9375 628.652344 407.054688 C 628 406.171875 627.371094 405.277344 626.761719 404.363281 C 626.15625 403.453125 625.570312 402.527344 625.007812 401.585938 C 624.445312 400.644531 623.90625 399.6875 623.390625 398.722656 C 622.875 397.753906 622.382812 396.773438 621.917969 395.78125 C 621.449219 394.789062 621.007812 393.789062 620.585938 392.773438 C 620.167969 391.761719 619.777344 390.738281 619.40625 389.703125 C 619.039062 388.671875 618.695312 387.628906 618.378906 386.578125 C 618.0625 385.527344 617.769531 384.472656 617.503906 383.40625 C 617.238281 382.34375 617 381.273438 616.785156 380.195312 C 616.570312 379.121094 616.386719 378.039062 616.222656 376.957031 C 616.0625 375.871094 615.929688 374.78125 615.824219 373.6875 C 615.714844 372.597656 615.636719 371.503906 615.582031 370.40625 C 615.527344 369.3125 615.5 368.214844 615.5 367.117188 C 615.5 366.019531 615.527344 364.925781 615.582031 363.828125 C 615.636719 362.734375 615.714844 361.640625 615.824219 360.546875 C 615.929688 359.453125 616.0625 358.367188 616.222656 357.28125 C 616.386719 356.195312 616.570312 355.113281 616.785156 354.039062 C 617 352.960938 617.238281 351.890625 617.503906 350.828125 C 617.769531 349.765625 618.0625 348.707031 618.378906 347.65625 C 618.695312 346.605469 619.039062 345.566406 619.40625 344.53125 C 619.777344 343.5 620.167969 342.476562 620.585938 341.460938 C 621.007812 340.449219 621.449219 339.445312 621.917969 338.453125 C 622.382812 337.460938 622.875 336.480469 623.390625 335.515625 C 623.90625 334.546875 624.445312 333.59375 625.007812 332.652344 C 625.570312 331.710938 626.15625 330.785156 626.761719 329.871094 C 627.371094 328.960938 628 328.0625 628.652344 327.179688 C 629.304688 326.300781 629.976562 325.433594 630.667969 324.585938 C 631.363281 323.738281 632.078125 322.910156 632.8125 322.09375 C 633.546875 321.28125 634.300781 320.488281 635.074219 319.710938 C 635.847656 318.9375 636.636719 318.179688 637.449219 317.445312 C 638.257812 316.707031 639.085938 315.988281 639.933594 315.292969 C 640.777344 314.597656 641.640625 313.921875 642.519531 313.269531 C 643.398438 312.617188 644.289062 311.984375 645.199219 311.375 C 646.109375 310.765625 647.03125 310.179688 647.972656 309.613281 C 648.910156 309.050781 649.859375 308.507812 650.824219 307.992188 C 651.789062 307.476562 652.765625 306.980469 653.753906 306.511719 C 654.742188 306.042969 655.742188 305.597656 656.753906 305.179688 C 657.761719 304.757812 658.78125 304.363281 659.8125 303.996094 C 660.84375 303.625 661.878906 303.28125 662.925781 302.964844 C 663.972656 302.644531 665.027344 302.351562 666.089844 302.085938 C 667.148438 301.820312 668.214844 301.578125 669.289062 301.363281 C 670.359375 301.152344 671.4375 300.964844 672.519531 300.800781 C 673.601562 300.640625 674.6875 300.507812 675.773438 300.398438 C 676.863281 300.292969 677.953125 300.210938 679.046875 300.15625 C 680.136719 300.101562 681.230469 300.078125 682.324219 300.078125 C 683.417969 300.078125 684.511719 300.101562 685.605469 300.15625 C 686.695312 300.210938 687.785156 300.292969 688.875 300.398438 C 689.964844 300.507812 691.046875 300.640625 692.128906 300.800781 C 693.210938 300.964844 694.289062 301.152344 695.363281 301.363281 C 696.433594 301.578125 697.5 301.820312 698.5625 302.085938 C 699.621094 302.351562 700.675781 302.644531 701.722656 302.964844 C 702.769531 303.28125 703.808594 303.625 704.835938 303.996094 C 705.867188 304.363281 706.886719 304.757812 707.898438 305.179688 C 708.90625 305.597656 709.90625 306.042969 710.894531 306.511719 C 711.886719 306.980469 712.863281 307.476562 713.824219 307.992188 C 714.789062 308.507812 715.742188 309.050781 716.679688 309.613281 C 717.617188 310.179688 718.542969 310.765625 719.449219 311.375 C 720.359375 311.984375 721.253906 312.617188 722.132812 313.269531 C 723.011719 313.921875 723.871094 314.597656 724.71875 315.292969 C 725.5625 315.988281 726.390625 316.707031 727.203125 317.445312 C 728.011719 318.179688 728.804688 318.9375 729.578125 319.710938 C 730.351562 320.488281 731.105469 321.28125 731.839844 322.09375 C 732.574219 322.910156 733.289062 323.738281 733.980469 324.585938 C 734.675781 325.433594 735.347656 326.300781 736 327.179688 C 736.648438 328.0625 737.28125 328.960938 737.886719 329.871094 C 738.496094 330.785156 739.078125 331.710938 739.640625 332.652344 C 740.203125 333.59375 740.742188 334.546875 741.257812 335.515625 C 741.773438 336.480469 742.265625 337.460938 742.734375 338.453125 C 743.199219 339.445312 743.644531 340.449219 744.0625 341.460938 C 744.480469 342.476562 744.875 343.5 745.242188 344.53125 C 745.613281 345.566406 745.953125 346.605469 746.273438 347.65625 C 746.589844 348.707031 746.882812 349.765625 747.148438 350.828125 C 747.414062 351.890625 747.652344 352.960938 747.867188 354.039062 C 748.078125 355.113281 748.265625 356.195312 748.425781 357.28125 C 748.585938 358.367188 748.71875 359.453125 748.828125 360.546875 C 748.933594 361.640625 749.015625 362.734375 749.070312 363.828125 C 749.121094 364.925781 749.148438 366.019531 749.148438 367.117188 Z M 749.148438 367.117188 " fill-opacity="1" fill-rule="nonzero"/><path fill="#ffffff" d="M 682.324219 322.421875 C 704.601562 322.421875 725 335.125 734.847656 355.355469 C 728.515625 326.1875 699.675781 307.839844 670.601562 314.425781 C 650.203125 318.894531 634.257812 334.890625 629.804688 355.355469 C 639.652344 335.125 660.050781 322.421875 682.324219 322.421875 Z M 682.324219 322.421875 " fill-opacity="1" fill-rule="nonzero"/><g clip-path="url(#71eac8815f)"><path fill="#90a4ae" d="M 682.324219 444.746094 C 639.652344 444.746094 604.949219 409.929688 604.949219 367.117188 C 604.949219 324.304688 639.652344 289.492188 682.324219 289.492188 C 725 289.492188 759.699219 324.304688 759.699219 367.117188 C 759.699219 409.929688 725 444.746094 682.324219 444.746094 Z M 682.324219 303.605469 C 647.390625 303.605469 619.019531 332.066406 619.019531 367.117188 C 619.019531 402.167969 647.390625 430.632812 682.324219 430.632812 C 717.261719 430.632812 745.632812 402.167969 745.632812 367.117188 C 745.632812 332.066406 717.261719 303.605469 682.324219 303.605469 Z M 682.324219 303.605469 " fill-opacity="1" fill-rule="nonzero"/></g><g clip-path="url(#53109a777d)"><path fill="#37474f" d="M 833.089844 492.027344 L 766.5 431.808594 C 764.625 430.160156 761.578125 430.160156 759.699219 432.042969 L 747.039062 444.746094 C 745.164062 446.628906 745.164062 449.683594 746.804688 451.566406 L 806.828125 518.375 C 808.703125 520.492188 811.753906 520.492188 813.863281 518.84375 C 813.863281 518.84375 814.097656 518.609375 814.097656 518.609375 L 833.324219 499.320312 C 835.199219 497.203125 835.199219 494.144531 833.089844 492.027344 C 833.324219 492.261719 833.089844 492.027344 833.089844 492.027344 Z M 833.089844 492.027344 " fill-opacity="1" fill-rule="nonzero"/></g><path fill="#b0bec5" d="M 734.847656 434.867188 C 734.144531 434.867188 733.675781 434.394531 733.675781 433.6875 C 733.675781 433.453125 733.910156 432.984375 733.910156 432.75 L 747.976562 418.632812 C 748.445312 418.164062 749.148438 418.164062 749.617188 418.632812 C 750.085938 419.105469 750.085938 419.808594 749.617188 420.28125 L 735.550781 434.394531 C 735.316406 434.628906 735.082031 434.867188 734.847656 434.867188 Z M 734.847656 434.867188 " fill-opacity="1" fill-rule="nonzero"/><path fill="#b0bec5" d="M 743.992188 446.390625 C 742.113281 446.390625 740.472656 444.746094 740.472656 442.863281 C 740.472656 441.921875 740.941406 440.980469 741.410156 440.277344 L 755.480469 426.160156 C 756.886719 424.75 758.996094 424.75 760.402344 426.160156 C 761.8125 427.574219 761.8125 429.691406 760.402344 431.101562 L 753.371094 438.160156 L 746.335938 445.214844 C 745.867188 446.15625 744.929688 446.390625 743.992188 446.390625 Z M 743.992188 446.390625 " fill-opacity="1" fill-rule="nonzero"/><g fill="#000000" fill-opacity="1"><g transform="translate(688.715597, 479.240708)"><g><path d="M 28.890625 -10.6875 C 29.765625 -10.445312 30.507812 -10.164062 31.125 -9.84375 C 31.75 -9.519531 32.273438 -9.1875 32.703125 -8.84375 C 33.128906 -8.507812 33.460938 -8.160156 33.703125 -7.796875 C 33.953125 -7.441406 34.144531 -7.097656 34.28125 -6.765625 C 34.414062 -6.441406 34.5 -6.132812 34.53125 -5.84375 C 34.570312 -5.5625 34.59375 -5.328125 34.59375 -5.140625 C 34.59375 -4.421875 34.457031 -3.78125 34.1875 -3.21875 C 33.914062 -2.65625 33.546875 -2.15625 33.078125 -1.71875 C 32.617188 -1.289062 32.082031 -0.925781 31.46875 -0.625 C 30.863281 -0.332031 30.226562 -0.09375 29.5625 0.09375 C 28.894531 0.289062 28.210938 0.429688 27.515625 0.515625 C 26.816406 0.597656 26.15625 0.640625 25.53125 0.640625 C 24.519531 0.640625 23.472656 0.535156 22.390625 0.328125 C 21.304688 0.128906 20.210938 -0.195312 19.109375 -0.65625 C 18.859375 -0.757812 18.734375 -0.941406 18.734375 -1.203125 C 18.734375 -1.378906 18.796875 -1.519531 18.921875 -1.625 C 19.046875 -1.726562 19.175781 -1.78125 19.3125 -1.78125 C 19.382812 -1.78125 19.460938 -1.765625 19.546875 -1.734375 C 20.503906 -1.335938 21.484375 -1.035156 22.484375 -0.828125 C 23.492188 -0.617188 24.503906 -0.515625 25.515625 -0.515625 C 26.898438 -0.515625 28.085938 -0.648438 29.078125 -0.921875 C 30.078125 -1.191406 30.894531 -1.539062 31.53125 -1.96875 C 32.175781 -2.40625 32.648438 -2.898438 32.953125 -3.453125 C 33.265625 -4.003906 33.421875 -4.5625 33.421875 -5.125 C 33.421875 -5.75 33.25 -6.328125 32.90625 -6.859375 C 32.5625 -7.390625 32.070312 -7.863281 31.4375 -8.28125 C 30.8125 -8.707031 30.054688 -9.066406 29.171875 -9.359375 C 28.296875 -9.660156 27.316406 -9.882812 26.234375 -10.03125 C 25.523438 -9.90625 24.835938 -9.816406 24.171875 -9.765625 C 23.503906 -9.710938 22.890625 -9.6875 22.328125 -9.6875 L 21.984375 -9.6875 C 21.910156 -9.6875 21.84375 -9.691406 21.78125 -9.703125 C 21.039062 -7.929688 20.160156 -6.398438 19.140625 -5.109375 C 18.117188 -3.816406 17.03125 -2.742188 15.875 -1.890625 C 14.726562 -1.046875 13.546875 -0.421875 12.328125 -0.015625 C 11.109375 0.378906 9.941406 0.578125 8.828125 0.578125 C 7.671875 0.578125 6.609375 0.414062 5.640625 0.09375 C 4.671875 -0.226562 3.835938 -0.6875 3.140625 -1.28125 C 2.441406 -1.875 1.894531 -2.59375 1.5 -3.4375 C 1.113281 -4.28125 0.921875 -5.226562 0.921875 -6.28125 C 0.921875 -7.363281 1.132812 -8.484375 1.5625 -9.640625 C 1.988281 -10.804688 2.617188 -11.992188 3.453125 -13.203125 C 4.253906 -14.328125 5.140625 -15.335938 6.109375 -16.234375 C 7.085938 -17.128906 8.113281 -17.914062 9.1875 -18.59375 C 10.257812 -19.269531 11.363281 -19.847656 12.5 -20.328125 C 13.644531 -20.816406 14.773438 -21.210938 15.890625 -21.515625 C 17.015625 -21.828125 18.113281 -22.050781 19.1875 -22.1875 C 20.257812 -22.320312 21.265625 -22.390625 22.203125 -22.390625 C 22.972656 -22.390625 23.707031 -22.363281 24.40625 -22.3125 C 25.101562 -22.257812 25.769531 -22.1875 26.40625 -22.09375 C 26.78125 -22.5 27.078125 -22.789062 27.296875 -22.96875 C 27.523438 -23.144531 27.65625 -23.242188 27.6875 -23.265625 C 27.8125 -23.328125 27.921875 -23.359375 28.015625 -23.359375 C 28.148438 -23.359375 28.273438 -23.316406 28.390625 -23.234375 C 28.503906 -23.160156 28.5625 -23.046875 28.5625 -22.890625 C 28.5625 -22.679688 28.488281 -22.503906 28.34375 -22.359375 C 28.195312 -22.222656 28.003906 -22.039062 27.765625 -21.8125 C 29.640625 -21.351562 31.070312 -20.65625 32.0625 -19.71875 C 33.0625 -18.789062 33.5625 -17.644531 33.5625 -16.28125 C 33.5625 -15.539062 33.4375 -14.867188 33.1875 -14.265625 C 32.945312 -13.671875 32.613281 -13.148438 32.1875 -12.703125 C 31.757812 -12.253906 31.257812 -11.863281 30.6875 -11.53125 C 30.125 -11.195312 29.523438 -10.914062 28.890625 -10.6875 Z M 26.25 -11.203125 C 26.707031 -11.285156 27.171875 -11.390625 27.640625 -11.515625 C 28.117188 -11.648438 28.585938 -11.8125 29.046875 -12 C 29.503906 -12.195312 29.9375 -12.425781 30.34375 -12.6875 C 30.757812 -12.945312 31.117188 -13.253906 31.421875 -13.609375 C 31.722656 -13.960938 31.960938 -14.359375 32.140625 -14.796875 C 32.316406 -15.234375 32.40625 -15.734375 32.40625 -16.296875 C 32.40625 -17.453125 31.925781 -18.398438 30.96875 -19.140625 C 30.019531 -19.890625 28.65625 -20.445312 26.875 -20.8125 C 26.351562 -20.175781 25.867188 -19.472656 25.421875 -18.703125 C 24.972656 -17.929688 24.554688 -17.132812 24.171875 -16.3125 C 23.796875 -15.488281 23.457031 -14.648438 23.15625 -13.796875 C 22.851562 -12.953125 22.601562 -12.132812 22.40625 -11.34375 C 22.613281 -11.351562 22.800781 -11.359375 22.96875 -11.359375 C 23.144531 -11.359375 23.296875 -11.359375 23.421875 -11.359375 C 23.828125 -11.359375 24.265625 -11.347656 24.734375 -11.328125 C 25.203125 -11.304688 25.707031 -11.265625 26.25 -11.203125 Z M 25.5625 -21.03125 C 25.039062 -21.101562 24.503906 -21.148438 23.953125 -21.171875 C 23.398438 -21.203125 22.816406 -21.21875 22.203125 -21.21875 C 21.304688 -21.21875 20.347656 -21.148438 19.328125 -21.015625 C 18.316406 -20.890625 17.273438 -20.679688 16.203125 -20.390625 C 15.140625 -20.109375 14.066406 -19.738281 12.984375 -19.28125 C 11.898438 -18.820312 10.847656 -18.269531 9.828125 -17.625 C 8.816406 -16.988281 7.847656 -16.242188 6.921875 -15.390625 C 5.992188 -14.546875 5.15625 -13.585938 4.40625 -12.515625 C 3.632812 -11.429688 3.050781 -10.359375 2.65625 -9.296875 C 2.269531 -8.242188 2.078125 -7.242188 2.078125 -6.296875 C 2.078125 -5.398438 2.238281 -4.597656 2.5625 -3.890625 C 2.882812 -3.179688 3.34375 -2.582031 3.9375 -2.09375 C 4.53125 -1.613281 5.242188 -1.238281 6.078125 -0.96875 C 6.910156 -0.707031 7.828125 -0.578125 8.828125 -0.578125 C 9.835938 -0.578125 10.882812 -0.757812 11.96875 -1.125 C 13.050781 -1.488281 14.109375 -2.046875 15.140625 -2.796875 C 16.179688 -3.554688 17.164062 -4.507812 18.09375 -5.65625 C 19.03125 -6.8125 19.847656 -8.1875 20.546875 -9.78125 C 20.359375 -9.78125 20.164062 -9.832031 19.96875 -9.9375 C 19.78125 -10.050781 19.6875 -10.222656 19.6875 -10.453125 C 19.6875 -10.703125 19.800781 -10.878906 20.03125 -10.984375 C 20.269531 -11.097656 20.644531 -11.191406 21.15625 -11.265625 C 21.425781 -12.097656 21.703125 -12.9375 21.984375 -13.78125 C 22.273438 -14.625 22.59375 -15.453125 22.9375 -16.265625 C 23.289062 -17.085938 23.675781 -17.894531 24.09375 -18.6875 C 24.519531 -19.488281 25.007812 -20.269531 25.5625 -21.03125 Z M 25.5625 -21.03125 "/></g></g></g></svg>