<svg xmlns="http://www.w3.org/2000/svg" xmlns:xlink="http://www.w3.org/1999/xlink" width="1920" zoomAndPan="magnify" viewBox="0 0 1440 809.999993" height="1080" preserveAspectRatio="xMidYMid meet" version="1.0"><defs><clipPath id="a0c0a30adb"><path d="M 604.5 289.875 L 835 289.875 L 835 520.125 L 604.5 520.125 Z M 604.5 289.875 " clip-rule="nonzero"/></clipPath><clipPath id="6a4d8faa2c"><path d="M 672 298.792969 L 767 298.792969 L 767 399 L 672 399 Z M 672 298.792969 " clip-rule="nonzero"/></clipPath><clipPath id="e5738eaef8"><path d="M 632 399 L 807.414062 399 L 807.414062 491.542969 L 632 491.542969 Z M 632 399 " clip-rule="nonzero"/></clipPath></defs><g clip-path="url(#a0c0a30adb)"><path fill="#3b1f52" d="M 834.886719 405.070312 C 834.886719 406.953125 834.839844 408.839844 834.75 410.722656 C 834.65625 412.605469 834.515625 414.484375 834.332031 416.359375 C 834.148438 418.234375 833.917969 420.105469 833.640625 421.972656 C 833.363281 423.835938 833.042969 425.691406 832.671875 427.542969 C 832.304688 429.390625 831.894531 431.230469 831.433594 433.058594 C 830.976562 434.886719 830.472656 436.703125 829.925781 438.507812 C 829.378906 440.3125 828.789062 442.101562 828.152344 443.875 C 827.519531 445.652344 826.839844 447.410156 826.117188 449.152344 C 825.398438 450.894531 824.632812 452.617188 823.828125 454.320312 C 823.019531 456.023438 822.175781 457.707031 821.285156 459.371094 C 820.398438 461.03125 819.46875 462.671875 818.5 464.289062 C 817.527344 465.90625 816.519531 467.5 815.472656 469.066406 C 814.425781 470.632812 813.339844 472.175781 812.21875 473.6875 C 811.09375 475.203125 809.933594 476.6875 808.738281 478.148438 C 807.542969 479.605469 806.3125 481.03125 805.046875 482.429688 C 803.78125 483.824219 802.480469 485.191406 801.148438 486.523438 C 799.816406 487.855469 798.449219 489.15625 797.054688 490.421875 C 795.65625 491.6875 794.230469 492.917969 792.773438 494.113281 C 791.3125 495.308594 789.828125 496.46875 788.3125 497.59375 C 786.800781 498.714844 785.257812 499.800781 783.691406 500.847656 C 782.125 501.894531 780.53125 502.902344 778.914062 503.875 C 777.296875 504.84375 775.65625 505.773438 773.996094 506.660156 C 772.332031 507.550781 770.648438 508.394531 768.945312 509.203125 C 767.242188 510.007812 765.519531 510.773438 763.777344 511.492188 C 762.035156 512.214844 760.277344 512.894531 758.5 513.527344 C 756.726562 514.164062 754.9375 514.753906 753.132812 515.300781 C 751.328125 515.847656 749.511719 516.351562 747.683594 516.808594 C 745.855469 517.269531 744.015625 517.679688 742.167969 518.046875 C 740.316406 518.417969 738.460938 518.738281 736.597656 519.015625 C 734.730469 519.292969 732.859375 519.523438 730.984375 519.707031 C 729.109375 519.890625 727.230469 520.03125 725.347656 520.125 C 723.460938 520.214844 721.578125 520.261719 719.695312 520.261719 C 717.808594 520.261719 715.925781 520.214844 714.042969 520.125 C 712.160156 520.03125 710.277344 519.890625 708.402344 519.707031 C 706.527344 519.523438 704.65625 519.292969 702.792969 519.015625 C 700.925781 518.738281 699.070312 518.417969 697.21875 518.046875 C 695.371094 517.679688 693.53125 517.269531 691.703125 516.808594 C 689.875 516.351562 688.058594 515.847656 686.253906 515.300781 C 684.449219 514.753906 682.660156 514.164062 680.886719 513.527344 C 679.109375 512.894531 677.351562 512.214844 675.609375 511.492188 C 673.871094 510.773438 672.144531 510.007812 670.441406 509.203125 C 668.738281 508.394531 667.054688 507.550781 665.390625 506.660156 C 663.730469 505.773438 662.089844 504.84375 660.472656 503.875 C 658.855469 502.902344 657.261719 501.894531 655.695312 500.847656 C 654.128906 499.800781 652.585938 498.714844 651.074219 497.59375 C 649.558594 496.46875 648.074219 495.308594 646.617188 494.113281 C 645.160156 492.917969 643.730469 491.6875 642.335938 490.421875 C 640.9375 489.15625 639.574219 487.855469 638.238281 486.523438 C 636.90625 485.191406 635.605469 483.824219 634.339844 482.429688 C 633.074219 481.03125 631.84375 479.605469 630.648438 478.148438 C 629.453125 476.6875 628.292969 475.203125 627.167969 473.6875 C 626.046875 472.175781 624.960938 470.632812 623.914062 469.066406 C 622.867188 467.5 621.859375 465.90625 620.890625 464.289062 C 619.917969 462.671875 618.992188 461.03125 618.101562 459.371094 C 617.214844 457.707031 616.367188 456.023438 615.558594 454.320312 C 614.753906 452.617188 613.988281 450.894531 613.269531 449.152344 C 612.546875 447.410156 611.867188 445.652344 611.234375 443.875 C 610.597656 442.101562 610.007812 440.3125 609.460938 438.507812 C 608.914062 436.703125 608.410156 434.886719 607.953125 433.058594 C 607.492188 431.230469 607.082031 429.390625 606.714844 427.542969 C 606.34375 425.691406 606.023438 423.835938 605.746094 421.972656 C 605.46875 420.105469 605.238281 418.234375 605.054688 416.359375 C 604.871094 414.484375 604.730469 412.605469 604.640625 410.722656 C 604.546875 408.839844 604.5 406.953125 604.5 405.070312 C 604.5 403.183594 604.546875 401.300781 604.640625 399.417969 C 604.730469 397.535156 604.871094 395.652344 605.054688 393.777344 C 605.238281 391.902344 605.46875 390.03125 605.746094 388.167969 C 606.023438 386.300781 606.34375 384.445312 606.714844 382.59375 C 607.082031 380.746094 607.492188 378.90625 607.953125 377.078125 C 608.410156 375.25 608.914062 373.433594 609.460938 371.628906 C 610.007812 369.824219 610.597656 368.035156 611.234375 366.261719 C 611.867188 364.484375 612.546875 362.726562 613.269531 360.984375 C 613.988281 359.246094 614.753906 357.519531 615.558594 355.816406 C 616.367188 354.113281 617.214844 352.429688 618.101562 350.765625 C 618.992188 349.105469 619.917969 347.464844 620.890625 345.847656 C 621.859375 344.230469 622.867188 342.636719 623.914062 341.070312 C 624.960938 339.503906 626.046875 337.960938 627.167969 336.449219 C 628.292969 334.933594 629.453125 333.449219 630.648438 331.992188 C 631.84375 330.535156 633.074219 329.105469 634.339844 327.710938 C 635.605469 326.3125 636.90625 324.949219 638.238281 323.613281 C 639.574219 322.28125 640.9375 320.980469 642.335938 319.714844 C 643.730469 318.449219 645.160156 317.21875 646.617188 316.023438 C 648.074219 314.828125 649.558594 313.667969 651.074219 312.542969 C 652.585938 311.421875 654.128906 310.335938 655.695312 309.289062 C 657.261719 308.242188 658.855469 307.234375 660.472656 306.265625 C 662.089844 305.292969 663.730469 304.367188 665.390625 303.476562 C 667.054688 302.589844 668.738281 301.742188 670.441406 300.933594 C 672.144531 300.128906 673.871094 299.363281 675.609375 298.644531 C 677.351562 297.921875 679.109375 297.242188 680.886719 296.609375 C 682.660156 295.972656 684.449219 295.382812 686.253906 294.835938 C 688.058594 294.289062 689.875 293.785156 691.703125 293.328125 C 693.53125 292.867188 695.371094 292.457031 697.21875 292.089844 C 699.070312 291.71875 700.925781 291.398438 702.792969 291.121094 C 704.65625 290.84375 706.527344 290.613281 708.402344 290.429688 C 710.277344 290.246094 712.160156 290.105469 714.042969 290.015625 C 715.925781 289.921875 717.808594 289.875 719.695312 289.875 C 721.578125 289.875 723.460938 289.921875 725.347656 290.015625 C 727.230469 290.105469 729.109375 290.246094 730.984375 290.429688 C 732.859375 290.613281 734.730469 290.84375 736.597656 291.121094 C 738.460938 291.398438 740.316406 291.71875 742.167969 292.089844 C 744.015625 292.457031 745.855469 292.867188 747.683594 293.328125 C 749.511719 293.785156 751.328125 294.289062 753.132812 294.835938 C 754.9375 295.382812 756.726562 295.972656 758.5 296.609375 C 760.277344 297.242188 762.035156 297.921875 763.777344 298.644531 C 765.519531 299.363281 767.242188 300.128906 768.945312 300.933594 C 770.648438 301.742188 772.332031 302.589844 773.996094 303.476562 C 775.65625 304.367188 777.296875 305.292969 778.914062 306.265625 C 780.53125 307.234375 782.125 308.242188 783.691406 309.289062 C 785.257812 310.335938 786.800781 311.421875 788.3125 312.542969 C 789.828125 313.667969 791.3125 314.828125 792.773438 316.023438 C 794.230469 317.21875 795.65625 318.449219 797.054688 319.714844 C 798.449219 320.980469 799.816406 322.28125 801.148438 323.613281 C 802.480469 324.949219 803.78125 326.3125 805.046875 327.710938 C 806.3125 329.105469 807.542969 330.535156 808.738281 331.992188 C 809.933594 333.449219 811.09375 334.933594 812.21875 336.449219 C 813.339844 337.960938 814.425781 339.503906 815.472656 341.070312 C 816.519531 342.636719 817.527344 344.230469 818.5 345.847656 C 819.46875 347.464844 820.398438 349.105469 821.285156 350.765625 C 822.175781 352.429688 823.019531 354.113281 823.828125 355.816406 C 824.632812 357.519531 825.398438 359.246094 826.117188 360.984375 C 826.839844 362.726562 827.519531 364.484375 828.152344 366.261719 C 828.789062 368.035156 829.378906 369.824219 829.925781 371.628906 C 830.472656 373.433594 830.976562 375.25 831.433594 377.078125 C 831.894531 378.90625 832.304688 380.746094 832.671875 382.59375 C 833.042969 384.445312 833.363281 386.300781 833.640625 388.167969 C 833.917969 390.03125 834.148438 391.902344 834.332031 393.777344 C 834.515625 395.652344 834.65625 397.535156 834.75 399.417969 C 834.839844 401.300781 834.886719 403.183594 834.886719 405.070312 Z M 834.886719 405.070312 " fill-opacity="1" fill-rule="nonzero"/></g><g clip-path="url(#6a4d8faa2c)"><path fill="#ffffff" d="M 719.695312 398.730469 C 745.484375 398.730469 766.464844 371.355469 766.464844 345.566406 C 766.464844 319.777344 745.484375 298.792969 719.695312 298.792969 C 693.902344 298.792969 672.921875 319.777344 672.921875 345.566406 C 672.925781 371.355469 693.90625 398.730469 719.695312 398.730469 Z M 719.695312 398.730469 " fill-opacity="1" fill-rule="nonzero"/></g><g clip-path="url(#e5738eaef8)"><path fill="#ffffff" d="M 754.808594 399.210938 C 745.734375 406.125 734.417969 410.234375 722.15625 410.234375 L 717.234375 410.234375 C 704.96875 410.234375 693.648438 406.121094 684.578125 399.210938 C 654.957031 404 632.335938 429.675781 632.335938 460.648438 C 632.335938 477.664062 671.445312 491.460938 719.695312 491.460938 C 767.941406 491.460938 807.054688 477.664062 807.054688 460.648438 C 807.054688 429.675781 784.429688 404 754.808594 399.210938 Z M 754.808594 399.210938 " fill-opacity="1" fill-rule="nonzero"/></g></svg>